<?xml version="1.0" encoding="UTF-8"?><svg xmlns="http://www.w3.org/2000/svg" viewBox="0 0 80.63 127"><defs><style>.d{fill:#fff;}</style></defs><g id="a"/><g id="b"><g id="c"><g><path class="d" d="M51.49,20.5c0-5.68,0-11.37,0-17.05,0-.55,0-1.11,.12-1.65,.26-1.17,.99-1.88,2.24-1.79,1.25,.08,1.85,.86,1.96,2.08,.18,2.11,.19,2.11,2.32,2.11,6.54,0,13.08,0,19.62,0,1.17,0,2.28,.09,2.73,1.37,.44,1.24-.24,2.1-1.15,2.85-2.72,2.24-5.41,4.5-8.13,6.75-1.48,1.22-1.48,1.27,.04,2.53,2.63,2.18,5.26,4.37,7.9,6.54,.98,.81,1.85,1.67,1.32,3.06-.5,1.31-1.69,1.45-2.89,1.45-6.59,0-13.18,0-19.77,0-1.98,0-1.99,.01-1.99,2.03,0,8.45,0,16.9,0,25.35,0,.5,.02,1.01-.04,1.51-.14,1.08-.79,1.78-1.86,1.87-1.13,.1-1.94-.49-2.24-1.61-.38-1.43-.18-2.9-.18-4.36,0-1.08-.31-1.42-1.49-1.43-4.37-.05-8.74-.25-13.11-.42-1.84-.07-3.32-1.08-4.8-2.03-.77-.5-1.09-.35-1.03,.57,0,.05,0,.1,0,.15q-.17,5.12,4.52,7.23c2.02,.91,4.03,1.83,6.02,2.81,1.96,.96,2.96,2.63,2.84,4.76-.26,4.76-.59,9.53-1.02,14.28-.31,3.48-3.14,5.72-6.68,5.51-3.12-.18-5.55-2.86-5.57-6.19-.02-2.06-.12-4.14,.05-6.18,.14-1.73-.51-2.54-2.1-3.05-1.89-.6-1.86-.7-2.35,1.23-1.88,7.4-3.72,14.82-5.67,22.2-.97,3.66-4.44,5.67-7.88,4.76-3.5-.92-5.61-4.24-4.73-7.76,2.13-8.53,4.36-17.04,6.56-25.56,.3-1.18,.48-2.35,.47-3.57,0-4.98,.04-9.96,.04-14.94,0-.47,.26-1.11-.29-1.37-.45-.22-.79,.33-1.17,.53-1.25,.67-1.83,1.61-1.84,3.13-.03,2.45-.34,4.91-.58,7.36-.32,3.34-2.47,5.6-5.48,5.83-2.73,.21-5.37-1.64-6.01-4.28-.38-1.59-.13-3.21-.03-4.81,.22-3.31,.55-6.61,.82-9.91,.16-2.03,1.03-3.66,2.67-4.86,3.99-2.9,7.95-5.83,11.99-8.66,3.95-2.76,8.75-2.57,12.41,.59,2.58,2.23,5.07,4.61,7.36,7.14,1.62,1.8,3.46,2.5,5.77,2.59,2.91,.11,5.82,.34,8.72,.6,1.2,.1,1.6-.32,1.59-1.51-.04-5.93-.02-11.87-.02-17.81Zm-15.94,53.51h-.02c0,1.66-.03,3.32,.01,4.98,.03,.91,.54,1.5,1.48,1.61,.95,.11,1.67-.22,2.03-1.17,.24-.63,.25-1.27,.29-1.93,.22-3.61,.3-7.24,.75-10.82,.23-1.79-.36-2.53-1.86-3.17-3.19-1.36-6.32-2.86-9.48-4.3-1.02-.47-1.78-1.1-1.8-2.35-.07-3.72-.21-7.44-.23-11.16,0-2.3,1.68-3.23,3.68-2.09,1.61,.92,3.21,1.89,4.76,2.91,.97,.63,1.98,.86,3.12,.88,3.37,.08,6.73,.21,10.09,.4,1.98,.11,2.88-.29,3.02-1.58,.15-1.41-.71-2.14-2.7-2.27-.2-.01-.4,0-.6-.02-3.51-.22-7.02-.44-10.53-.66-1.05-.07-1.9-.49-2.66-1.24-2.9-2.86-5.84-5.68-8.76-8.52-2.85-2.76-5.56-2.95-8.77-.62-3.34,2.42-6.63,4.9-10.05,7.21-1.61,1.09-2.16,2.46-2.25,4.29-.18,3.46-.46,6.91-.76,10.37-.1,1.14,.04,2.12,1.35,2.23,1.33,.11,1.6-.87,1.69-1.99,.26-3.2,.59-6.4,.84-9.6,.08-1.05,.53-1.79,1.37-2.37,2.1-1.47,4.2-2.95,6.29-4.43,.89-.63,1.76-1.19,2.91-.62,1.16,.59,1.16,1.64,1.15,2.72-.02,6.84-.04,13.68-.04,20.52,0,1.12-.14,2.2-.42,3.28-2.14,8.27-4.27,16.54-6.39,24.82-.17,.68-.36,1.37-.41,2.06-.08,1.09,.5,1.85,1.54,2.13,1.01,.27,1.94,.01,2.45-.98,.3-.57,.48-1.21,.64-1.84,2.1-8.23,4.17-16.46,6.28-24.69,.53-2.07,1.61-2.6,3.58-1.82,2.15,.85,4.28,1.76,6.43,2.59,1.35,.52,2,1.42,1.97,2.86-.03,1.46,0,2.92,0,4.37ZM72.24,8.73c-.56-.13-.75-.2-.93-.2-4.73,0-9.45,0-14.18-.02-1.13,0-1.31,.59-1.3,1.53,.03,4.27,.06,8.55-.02,12.82-.02,1.32,.5,1.6,1.69,1.58,4.22-.05,8.45-.02,12.67-.02h2.48c-2.43-2.02-4.46-3.72-6.51-5.4-2.56-2.1-2.56-3.12-.05-5.18,1.97-1.62,3.93-3.26,6.15-5.11Z"/><path class="d" d="M69.67,99.37c0,7.34,0,14.69,0,22.03,0,3.82-1.72,5.54-5.51,5.54-4.33,0-8.66,.13-12.97-.03-6.65-.24-13.28,.24-19.93,.03-1.2-.04-2.41,.08-3.57-.41-.87-.37-1.62,.4-2.48,.4-5.38-.02-10.76,.05-16.14-.04-2.26-.04-4.06-2.02-4.09-4.45-.07-5.53-.08-11.07,0-16.6,.04-2.66,2.02-4.44,4.72-4.46,4.63-.03,9.25-.04,13.88,.01,1.17,.01,1.6-.34,1.57-1.55-.07-2.87-.04-5.73-.02-8.6,.02-3.03,1.84-4.91,4.88-4.93,4.48-.04,8.95-.06,13.43,.01,1.35,.02,1.75-.46,1.71-1.75-.08-2.46-.05-4.93-.01-7.39,.06-3.61,1.85-5.38,5.42-5.38,4.68,0,9.35-.01,14.03,0,3.19,.01,5.05,1.85,5.06,5.08,.02,7.49,0,14.99,0,22.48Zm-20.19-.15h0c0,7.24,.02,14.49-.02,21.73,0,1.22,.35,1.71,1.62,1.7,4.17-.05,8.35-.06,12.52,0,1.34,.02,1.72-.47,1.72-1.77-.03-14.33-.03-28.67,0-43,0-1.29-.37-1.79-1.71-1.77-4.12,.07-8.25,.07-12.37,0-1.4-.02-1.8,.46-1.79,1.84,.06,7.09,.03,14.18,.03,21.28Zm-20.02,7.32h.03c0,4.77,.03,9.55-.02,14.32-.01,1.27,.36,1.81,1.71,1.79,4.07-.06,8.14-.06,12.21,0,1.32,.02,1.74-.46,1.73-1.76-.04-9.5-.04-19,0-28.49,0-1.29-.37-1.78-1.71-1.75-4.02,.07-8.04,.07-12.06,0-1.43-.03-1.94,.41-1.92,1.88,.07,4.67,.03,9.35,.03,14.02Zm-20.16,7.47c0,2.31,.04,4.62-.02,6.93-.03,1.19,.32,1.73,1.61,1.72,4.22-.05,8.43-.04,12.65,0,1.13,0,1.62-.33,1.61-1.55-.05-4.62-.05-9.24,0-13.85,.01-1.21-.46-1.57-1.6-1.56-4.22,.04-8.43,.05-12.65,0-1.28-.02-1.66,.5-1.62,1.7,.07,2.21,.02,4.42,.02,6.62Z"/><path class="d" d="M33.5,17.18c-.03,5.09-4.23,9.25-9.27,9.19-5.07-.06-9.39-4.44-9.3-9.41,.1-5.18,4.25-9.21,9.44-9.16,5.24,.05,9.15,4.08,9.12,9.39Zm-14.21-.21c-.02,2.75,2.22,5.04,4.93,5.05,2.75,0,5.01-2.2,5.06-4.95,.05-2.65-2.3-5.06-4.96-5.08-2.69-.02-5.01,2.28-5.03,4.98Z"/></g></g></g></svg>