<?xml version="1.0" encoding="UTF-8"?><svg xmlns="http://www.w3.org/2000/svg" viewBox="0 0 128.26 153.84"><defs><style>.d{fill:#fff;}</style></defs><g id="a"/><g id="b"><g id="c"><g><path class="d" d="M78.88,112.28c1.97,2.83,1.86,4.02-.35,6.24-.36,.37-.79,.68-1.07,1.1-.56,.83-2.29,1.32-1.55,2.46,.82,1.29,1.83,2.7,3.86,2.68,7.19-.08,14.38,0,21.57-.05,1.49,0,2.79,.32,4.04,1.12,1.83,1.17,3.73,2.21,5.56,3.38,.91,.58,1.64,.68,2.65,.1,3.75-2.18,7.5-1.91,10.88,.73,3.13,2.44,4.42,5.78,3.5,9.73-.98,4.2-3.7,6.7-7.93,7.54-5.91,1.17-11.76-4.02-11.34-10.14,.07-1.04-.17-1.63-1.07-2.02-.05-.02-.1-.05-.15-.09-3.74-2.97-7.94-4.04-12.74-3.66-4.2,.33-8.44,.11-12.66,.05-1.33-.02-1.78,.41-1.79,1.76-.04,6.96,.88,4.95-4.41,10.32-2.88,2.93-5.8,5.83-8.72,8.72-2.17,2.15-3.89,2.16-6.04,.02-3.72-3.7-7.38-7.47-11.17-11.11-1.48-1.42-2.09-2.97-2.04-5,.1-4.68,.03-4.68-4.61-4.68s-9.59,.04-14.38-.03c-1.49-.02-2.81,.26-4.01,1.14-.41,.3-.86,.57-1.32,.79-2.45,1.19-4.09,2.52-4.29,5.83-.29,4.84-4.68,8.23-9.37,8.3-4.58,.06-8.68-3.22-9.66-7.91-.83-3.96,.54-7.24,3.7-9.66,3.18-2.43,6.74-2.8,10.28-.85,1.38,.76,2.4,.77,3.54-.15,4.5-3.65,9.63-4.7,15.33-4.26,4.31,.34,8.67,.02,13.01,.09,1.45,.03,1.87-.5,1.84-1.89-.08-2.97-.07-5.94,0-8.9,.02-1.23-.35-1.72-1.65-1.71-6.51,.05-13.01,.07-19.52-.02-1.35-.02-1.71,.78-2.26,1.66-2.13,3.38-5.25,5.14-9.22,4.74-4.16-.42-7.15-2.74-8.4-6.79-1.21-3.94-.24-7.47,2.86-10.26,4.54-4.07,11.63-2.95,14.75,2.39,.71,1.22,1.45,1.63,2.81,1.62,6.22-.07,12.44-.07,18.66,0,1.47,.02,2.03-.39,1.98-1.93-.11-2.96-.08-5.94-.01-8.9,.03-1.27-.43-1.69-1.69-1.68-6.39,.05-12.78,0-19.18,.04-1.54,.01-2.9-.29-4.2-1.14-1.87-1.21-3.83-2.27-5.71-3.45-.81-.5-1.46-.59-2.35-.09-3.95,2.21-7.93,1.99-11.17-.73-3.1-2.61-4.36-5.99-3.3-9.97,1.13-4.24,4.05-6.62,8.35-7.32,5.62-.91,11.25,4.36,10.85,10.24-.07,1.03,.15,1.64,1.07,2.02,.05,.02,.1,.05,.15,.09,3.75,2.96,7.94,4.05,12.74,3.67,4.2-.33,8.44-.11,12.66-.05,1.32,.02,1.78-.39,1.8-1.75,.07-5.87,.11-5.87-4.61-9.24-5.15-3.68-10.28-7.4-15.47-11.04-1.61-1.12-2.28-2.48-2.27-4.45,.06-12.16,.06-24.31,0-36.47-.01-2.04,.78-3.3,2.51-4.25C39.46,13.02,50.77,6.82,62.06,.59c1.45-.8,2.75-.78,4.19,0,11.35,6.24,22.71,12.46,34.07,18.68,1.61,.88,2.32,2.16,2.32,4.04-.04,12.27-.05,24.54,0,36.81,0,1.85-.68,3.12-2.16,4.17-6.24,4.42-12.44,8.9-18.69,13.3-1.04,.73-1.58,1.51-1.49,2.81,.1,1.48,.06,2.97,.01,4.45-.04,1.08,.34,1.54,1.48,1.53,6.28-.03,12.56-.02,18.83-.01,.66,0,1.22-.2,1.77-.53,.88-.54,1.75-1.09,2.65-1.57,2.23-1.18,3.79-2.36,3.95-5.5,.26-5.12,5.29-8.87,10.09-8.41,5.32,.51,9.25,4.78,9.17,9.95-.08,5.07-4.14,9.29-9.33,9.62-1.93,.12-3.76-.36-5.38-1.41-.9-.59-1.66-.62-2.49,.04-.04,.04-.1,.05-.15,.09-4.82,3.96-10.36,4.96-16.46,4.52-4.83-.35-9.7,.01-14.55-.11-2.11-.05-2.93,1.51-4.08,2.69-.49,.5,.11,.93,.45,1.29,.91,.94,1.87,1.84,2.76,2.8,1.47,1.58,1.64,2.73,.58,4.63-.46,.84-.38,1.09,.58,1.09,7.25-.01,14.5-.02,21.74,0,1.15,0,1.36-.87,1.79-1.57,2.08-3.36,5.12-5.1,9.02-4.81,4.25,.32,7.24,2.67,8.64,6.74,1.58,4.6-.69,9.74-5.09,11.8-4.61,2.16-9.91,.62-12.49-3.8-.74-1.26-1.5-1.7-2.95-1.69-6.73,.08-13.47,.04-20.2,.04h-1.77Zm-24.21-6.17c0,9.47,0,18.95,0,28.42,0,.99,.07,1.86,.88,2.64,2.59,2.5,5.12,5.05,7.63,7.62,.73,.75,1.23,.75,1.95,0,1.57-1.66,3.07-3.43,4.86-4.81,3.05-2.36,4.24-5.27,3.67-9.05-.14-.95-.32-1.73-1.04-2.41-1.44-1.38-2.85-2.8-4.23-4.24-1.64-1.72-1.66-3.38-.06-5.15,.92-1.02,1.9-1.98,2.89-2.92,.68-.65,.73-1.19,.02-1.86-.83-.78-1.62-1.61-2.41-2.43-2.12-2.2-2.11-3.82,.05-6.05,.79-.82,1.58-1.64,2.41-2.43,.63-.6,.63-1.12,0-1.73-.99-.95-1.96-1.91-2.9-2.91-1.67-1.78-1.66-3.5,.04-5.27,1.3-1.36,2.62-2.71,4-3.99,.86-.8,1.24-1.66,1.21-2.85-.08-2.57,.14-5.15-.07-7.7-.23-2.78,.83-4.55,3.12-6.11,6.04-4.11,11.92-8.45,17.88-12.67,.85-.6,1.37-1.21,1.36-2.35-.04-10.62-.03-21.23,0-31.85,0-1.05-.38-1.65-1.3-2.15-9.72-5.3-19.42-10.62-29.1-15.99-1.05-.58-1.81-.51-2.81,.05-9.63,5.33-19.28,10.64-28.96,15.9-1.08,.59-1.39,1.3-1.39,2.45,.03,10.44,.04,20.89,0,31.33,0,1.23,.42,1.97,1.41,2.67,6.25,4.41,12.44,8.9,18.69,13.3,1.55,1.09,2.26,2.36,2.24,4.29-.06,9.42-.03,18.83-.03,28.25ZM9.89,77.27c-1.68-.05-2.99,1.14-3.05,2.78-.06,1.63,1.2,2.94,2.86,2.98,1.77,.03,2.96-1.07,3-2.78,.04-1.75-1.06-2.92-2.81-2.97Zm108.64,0c-1.77-.02-2.94,1.09-2.96,2.82-.03,1.74,1.1,2.91,2.85,2.94,1.68,.03,2.98-1.18,3.01-2.82,.04-1.63-1.24-2.92-2.9-2.94ZM19.16,108.97c.03-1.64-1.22-2.91-2.91-2.94-1.7-.03-2.99,1.18-3.02,2.82-.03,1.64,1.22,2.91,2.91,2.94,1.69,.03,2.99-1.18,3.02-2.82Zm92.91,2.82c1.69,0,2.97-1.23,2.98-2.86,.01-1.64-1.26-2.89-2.95-2.9-1.69,0-2.97,1.22-2.98,2.86,0,1.64,1.26,2.89,2.95,2.9ZM9.89,134.8c-1.68-.05-2.99,1.14-3.05,2.78-.06,1.63,1.2,2.94,2.86,2.98,1.77,.03,2.96-1.07,3-2.78,.04-1.75-1.06-2.92-2.81-2.97Zm108.63,0c-1.77-.01-2.93,1.1-2.95,2.83-.02,1.74,1.11,2.9,2.86,2.93,1.67,.03,2.97-1.2,3-2.84,.03-1.63-1.25-2.91-2.91-2.92Z"/><path class="d" d="M64.1,64.33c-12.39,0-22.58-10.17-22.59-22.53-.01-12.43,10.21-22.57,22.75-22.54,12.36,.02,22.59,10.3,22.51,22.61-.08,12.4-10.24,22.46-22.66,22.46Zm-15.67-22.61c-.02,8.76,7,15.87,15.67,15.89,8.63,.02,15.69-7,15.74-15.64,.05-8.79-6.91-15.92-15.58-15.98-8.7-.06-15.81,7.01-15.83,15.73Z"/></g></g></g></svg>