<?xml version="1.0" encoding="UTF-8"?><svg xmlns="http://www.w3.org/2000/svg" viewBox="0 0 163.57 143"><defs><style>.d{fill:#fff;stroke:#fff;stroke-miterlimit:10;}</style></defs><g id="a"/><g id="b"><g id="c"><path class="d" d="M65.43,29.11c2.97,.82,5.84,1.48,8.33,2.99,1.89,1.14,3.11,.97,4.8-.49,6.48-5.57,14.16-8.26,22.66-8.61,1.28-.05,1.41-.28,.78-1.42-2.39-4.3-1.5-9.04,2.25-12.24,2.56-2.19,5.15-4.34,7.78-6.45,4.52-3.63,10.26-3.08,13.96,1.37,11.62,14,23.22,28.02,34.79,42.06,3.52,4.28,2.92,10.18-1.32,13.75-2.58,2.17-5.18,4.3-7.8,6.43-3.52,2.86-7.63,3.16-11.48,.75-1.17-.73-1.41-.52-1.68,.76-1.73,8.14-5.83,14.92-12.13,20.34-.98,.84-.97,1.39-.15,2.28,1.06,1.14,2.03,2.36,3.01,3.58,2.6,3.22,2.92,7.11,.74,10.64-2.24,3.64-5.51,5.66-9.84,5.67-1.12,0-1.57,.36-1.78,1.49-.97,5.38-5.6,9.16-11.13,9.12-.91,0-1.48,.05-1.64,1.17-.89,5.93-6.53,10.03-11.9,9.54-.97-.09-.89,.48-.98,1.09-.79,5.52-5.84,9.76-11.42,9.57-2.43-.08-4.48-1.02-6.06-2.91-1.29-1.55-2.59-3.08-3.84-4.65-.63-.79-1.15-.95-1.96-.19-1.02,.96-2.15,1.81-3.25,2.69-3.31,2.65-7.66,2.92-11.1,.7-3.4-2.2-4.93-6.18-3.78-10.28,.38-1.34,0-1.37-1.14-1.22-5.32,.71-10.57-4.41-9.94-9.74,.15-1.23-.21-1.56-1.31-1.76-5.45-.98-8.42-4.57-8.12-10,.08-1.51-.85-1.32-1.65-1.47-5.79-1.04-9.1-6.31-7.46-11.9,.53-1.8,1.59-3.23,3-4.43,1.15-.98,2.3-1.95,3.48-2.89,.73-.57,.81-1.1,.32-1.92-2.71-4.49-4.45-9.33-5.14-14.53-.09-.65-.14-1.3-.17-1.95-.08-1.78-.1-1.8-1.64-.97-3.62,1.95-7.74,1.61-10.87-.95-1.53-1.25-2.6-2.93-3.88-4.41-1.31-1.52-2.57-3.09-3.84-4.65-3.7-4.54-3.15-10.32,1.35-14.05C18.27,29.45,32.24,17.88,46.23,6.33c4.29-3.54,9.8-3.16,13.5,.97,2.45,2.73,4.78,5.57,7.02,8.47,2.67,3.45,3.22,8.56-1.33,13.33Zm1.54,86.66c.51,.02,1.31,.01,2.1,.22,6.29,1.68,8.88,8.87,5.12,14.35-.62,.9-.71,1.48,.07,2.31,1.17,1.24,2.25,2.57,3.26,3.95,1.27,1.73,2.94,2.4,4.99,2.11,2.86-.41,4.92-2.01,6.04-4.65,.99-2.33,.3-4.31-1.33-6.22-4.21-4.93-8.29-9.97-12.42-14.97-2.15-2.6-4.29-5.19-6.43-7.79-.77-.93-.95-1.95,.01-2.81,.98-.88,1.95-.53,2.77,.37,.24,.26,.45,.54,.68,.81,6.28,7.59,12.56,15.18,18.83,22.78,1.27,1.55,2.91,2.14,4.82,1.87,2.02-.29,3.66-1.34,4.93-2.94,2.05-2.57,2.01-5.14-.06-7.65-4.04-4.88-8.08-9.75-12.12-14.63-2.34-2.83-4.67-5.66-7.01-8.49-.77-.94-.96-1.93,.04-2.79,1.02-.87,1.95-.47,2.77,.4,.14,.15,.26,.31,.39,.46,6.31,7.63,12.65,15.24,18.93,22.89,1.55,1.9,3.4,2.49,5.74,1.93,5.31-1.27,7.19-6.75,3.75-10.88-5.08-6.11-10.13-12.24-15.18-18.36-1.25-1.51-2.52-3.01-3.72-4.55-.68-.87-.66-1.81,.23-2.55,.88-.73,1.77-.57,2.56,.21,.29,.28,.53,.6,.78,.91,6.31,7.63,12.62,15.26,18.92,22.9,.73,.89,1.61,1.51,2.74,1.73,2.87,.55,6.08-1.04,7.63-3.77,1.38-2.43,1.03-4.63-1.07-7.13-6.94-8.28-13.86-16.58-20.79-24.87-5.19-6.21-10.39-12.41-15.55-18.64-.76-.91-1.31-.97-2.2-.17-1.53,1.37-3.19,2.61-4.76,3.94-4.47,3.78-9.57,5.61-15.45,5.01-5.03-.52-9.2-2.72-12.55-6.48-1.11-1.24-1-2.09,.23-3.24,.33-.31,.69-.59,1.03-.88,5.42-4.48,10.85-8.96,16.27-13.45,1.18-.98,1.16-1.17-.2-1.81-2.7-1.27-5.53-2.07-8.47-2.61-1.31-.24-2.26,0-3.29,.85-9.61,8.01-19.3,15.94-28.9,23.97-4.91,4.11-4.79,2.33-4.12,9.51,.45,4.77,2.01,9.2,4.44,13.34,.4,.69,.81,.89,1.58,.52,6.68-3.18,14.04,2.07,13.25,9.29-.09,.86,.05,1.21,1.05,1.29,5.32,.43,8.87,4.76,8.38,10.15-.08,.93,.19,1.21,1.12,1.3,5.8,.56,9.56,5.75,8.14,11.36-.35,1.41-.12,1.84,1.29,1.58,.15-.03,.3,0,.74,0Zm68.43-52.04c.15-.91-.14-1.66-.72-2.37-9.23-11.14-18.45-22.29-27.67-33.45-.47-.57-.98-.92-1.76-.99-8.81-.8-16.77,1.43-23.66,6.97-7.48,6.01-14.79,12.23-22.22,18.3-1.06,.87-.8,1.28,.11,1.98,5.87,4.53,14.1,4.36,19.93-.44,2.52-2.08,5.03-4.16,7.56-6.23,1.43-1.17,2.3-1.09,3.47,.3,4.62,5.51,9.22,11.02,13.83,16.53,5.8,6.94,11.61,13.87,17.38,20.83,.84,1.01,1.46,1.28,2.53,.24,1.23-1.19,2.47-2.36,3.58-3.66,4.41-5.22,6.92-11.25,7.65-18.02Zm-30.94-46.87c-.15,1.8,.82,3.18,1.94,4.52,11.31,13.66,22.62,27.32,33.93,40.98,2.8,3.38,6.06,3.7,9.43,.92,2.33-1.92,4.64-3.85,6.96-5.78,3.19-2.64,3.49-6.06,.86-9.24-6.51-7.85-13-15.72-19.5-23.58-4.93-5.96-9.85-11.93-14.8-17.88-2.41-2.9-5.78-3.46-8.53-1.32-2.85,2.22-5.6,4.58-8.35,6.92-1.32,1.13-2.04,2.59-1.94,4.45ZM4.28,48.76c-.1,1.33,.41,2.61,1.34,3.74,2.05,2.48,4.1,4.96,6.14,7.45,2.71,3.31,6.01,3.65,9.32,.92,8.53-7.04,17.05-14.08,25.57-21.13,5.31-4.39,10.63-8.76,15.9-13.18,2.99-2.51,3.45-5.8,1.2-8.64-2.12-2.68-4.3-5.31-6.54-7.89-2.55-2.93-5.78-3.2-8.79-.71-14.03,11.59-28.03,23.2-42.04,34.81-1.39,1.16-2.12,2.65-2.09,4.64Zm50.37,81.19c-.02,2.64,.96,4.3,2.89,5.34,2.06,1.11,4.12,.92,5.95-.49,2.34-1.81,4.64-3.69,6.86-5.66,2.43-2.15,2.61-5.45,.59-7.83-1.91-2.24-5.27-2.59-7.73-.67-2.26,1.76-4.42,3.64-6.6,5.49-1.3,1.1-2,2.5-1.95,3.81Zm-12.1-40.82c.05-2.41-1.09-4.08-3.09-5.02-2.05-.96-4.14-.72-5.95,.72-2.2,1.75-4.36,3.55-6.5,5.38-2.45,2.09-2.79,5.45-.86,7.81,2.01,2.46,5.35,2.81,7.93,.76,2.2-1.75,4.36-3.55,6.51-5.36,1.33-1.13,2.03-2.59,1.96-4.28Zm13.31,17.39c-.9-.02-1.94,.09-2.74,.73-2.63,2.1-5.31,4.15-7.75,6.45-2.08,1.97-2.01,5.13-.21,7.27,1.83,2.18,4.85,2.77,7.18,1.15,2.76-1.92,5.36-4.08,7.75-6.44,1.7-1.69,1.9-3.88,.94-6.01-.95-2.08-2.66-3.22-5.17-3.15Zm-21.42-1.03c.01,2.65,.95,4.34,2.88,5.38,2.05,1.11,4.12,.93,5.95-.47,2.35-1.8,4.64-3.69,6.85-5.65,2.44-2.16,2.64-5.43,.64-7.82-1.86-2.22-5.3-2.58-7.74-.69-2.3,1.79-4.51,3.68-6.72,5.58-1.23,1.06-1.92,2.43-1.86,3.67Z"/></g></g></svg>