<svg xmlns="http://www.w3.org/2000/svg" viewBox="0 0 191.27 155"><defs><style>.d{fill:#fff;stroke:#fff;stroke-miterlimit:10}</style></defs><g id="b"><g id="c"><path class="d" d="M99.6 117.15H50.32c-3.63 0-4.21-.57-4.21-4.16q-.01-4.27-4.34-4.27H4.2c-3.08 0-3.58-.58-3.67-3.68-.27-8.68 2.02-16.47 7.85-23.05 8.85-10 22.69-13.5 35.27-8.99 3.81 1.36 7.37 3.18 10.52 5.71 1.06.85 1.67.77 2.58-.22 6.62-7.21 14.79-11.66 24.46-13.11 12.85-1.93 24.32 1.32 34.3 9.7.28.24.54.5.82.75 2.66 2.31 2.94 2.33 5.73.35 2.37-1.68 4.83-3.22 7.58-4.22 1.16-.42 1.63-1.06 1.59-2.32-.08-2.65-.04-5.31-.02-7.96.02-2.25.76-3.08 2.96-3.1 6.42-.04 12.83-.04 19.25 0 2.26.01 3.08.88 3.11 3.2.04 2.53.07 5.06-.01 7.59-.05 1.35.35 2.13 1.67 2.66 3.04 1.23 5.89 2.85 8.43 4.95 1.05.87 1.9.79 2.99.1 2.19-1.38 4.45-2.66 6.7-3.94 2.03-1.16 3.07-.91 4.26 1.14 3.19 5.49 6.36 11 9.5 16.53 1.23 2.17.95 3.11-1.21 4.38-2.29 1.34-4.58 2.69-6.9 3.97-1 .55-1.38 1.17-1.1 2.38.77 3.29.71 6.63 0 9.91-.27 1.29.11 1.91 1.19 2.5 2.33 1.26 4.61 2.63 6.9 3.97 1.96 1.14 2.32 2.19 1.24 4.1-3.23 5.68-6.5 11.35-9.79 17-1 1.71-2.12 1.99-3.88 1-2.31-1.3-4.61-2.63-6.86-4.03-1.15-.71-2.05-.75-3.16.15-2.55 2.07-5.37 3.74-8.44 4.92-1.18.45-1.56 1.19-1.53 2.39.06 2.53.04 5.06 0 7.59-.03 2.51-.86 3.42-3.31 3.44-6.23.05-12.46.05-18.69 0-2.58-.02-3.3-.82-3.32-3.35-.02-2.59-.05-5.18.01-7.77.03-1.14-.34-1.78-1.45-2.22-3.16-1.27-6.14-2.91-8.77-5.09-.95-.79-1.69-.89-2.77-.2-2.18 1.4-4.44 2.67-6.69 3.95-2.24 1.28-3.24 1.02-4.53-1.2-2.97-5.12-5.91-10.27-8.87-15.39-1.9-3.29-1.87-3.5 1.47-6.04Zm44.16 32.76c2.22 0 4.44-.03 6.66.01 1.13.02 1.53-.44 1.51-1.54-.04-2.53.02-5.06-.02-7.59-.02-1.59.68-2.55 2.18-3.02 4.37-1.36 8.23-3.63 11.61-6.69 1.29-1.17 2.5-1.31 3.99-.37 2.08 1.32 4.27 2.46 6.38 3.75.85.52 1.36.54 1.9-.43 2.21-3.92 4.46-7.82 6.74-11.7.52-.89.38-1.41-.54-1.91-2.17-1.18-4.26-2.48-6.43-3.65-1.55-.84-2-2.04-1.65-3.69.93-4.4.92-8.81-.01-13.21-.35-1.66.16-2.85 1.7-3.67 2.12-1.13 4.16-2.41 6.26-3.58.9-.5 1.27-.98.64-2.03-2.27-3.81-4.49-7.66-6.67-11.53-.57-1.02-1.11-1.05-2.05-.48-2.21 1.35-4.48 2.6-6.72 3.9-1.16.68-2.22.58-3.22-.32-3.52-3.2-7.55-5.52-12.06-7.01-1.42-.47-2.08-1.4-2.06-2.9.04-2.47-.04-4.94.02-7.4.04-1.29-.46-1.73-1.73-1.71-4.25.05-8.51.05-12.77 0-1.18-.01-1.68.42-1.65 1.62.05 2.34-.03 4.69.02 7.03.04 1.87-.76 2.99-2.56 3.55-4.25 1.32-8.01 3.53-11.26 6.55-1.36 1.26-2.63 1.31-4.15.35-2.04-1.28-4.17-2.4-6.21-3.67-.97-.6-1.48-.44-2.03.54-2.15 3.81-4.34 7.6-6.57 11.37-.61 1.04-.42 1.63.63 2.2 2.17 1.17 4.27 2.47 6.42 3.68 1.36.77 1.83 1.79 1.51 3.38-.91 4.52-.91 9.07 0 13.59.33 1.6-.21 2.6-1.56 3.35-2.1 1.17-4.16 2.41-6.27 3.57-1.06.58-1.39 1.17-.7 2.33 2.21 3.71 4.38 7.44 6.46 11.22.68 1.23 1.31 1.15 2.33.52 2.05-1.26 4.17-2.4 6.21-3.66 1.42-.88 2.61-.74 3.84.39 3.32 3.04 7.16 5.24 11.43 6.65 1.72.57 2.52 1.62 2.49 3.41-.03 2.16.09 4.32-.03 6.47-.09 1.72.39 2.49 2.25 2.35 1.9-.15 3.82-.03 5.73-.03Zm-65.04-37.37h26.09c1.13 0 2.2.03 1.91-1.62-.57-3.19-.49-6.39.08-9.56.19-1.07-.07-1.69-1.07-2.22-2.28-1.22-4.51-2.55-6.74-3.86-2.49-1.46-2.71-2.22-1.26-4.76 2.72-4.77 5.43-9.54 8.24-14.26.85-1.42.62-2.06-.85-2.78-7.19-3.51-14.73-4.88-22.64-3.67-13.36 2.05-23.05 9.17-28.78 21.47-2.84 6.09-3.12 12.61-3.01 19.19.03 1.65.54 2.1 2.14 2.08 8.64-.07 17.27-.03 25.91-.03Zm-53.11-8.4c6.05 0 12.09-.07 18.14.04 1.85.03 2.53-.64 2.65-2.39.41-6.16 2.45-11.8 5.64-17.04.66-1.09.54-1.69-.47-2.41-7.27-5.2-15.2-7.74-24.21-6.23-12.38 2.08-22.13 13.4-22.22 25.76-.01 1.82.6 2.32 2.34 2.3 6.04-.08 12.09-.03 18.14-.03ZM87.82 54.95c-14.76 0-27.19-12.39-27.21-27.11C60.59 12.87 72.97.49 87.95.49c14.71 0 27.11 12.44 27.11 27.2 0 14.86-12.39 27.26-27.24 27.25Zm22.64-27.14c-.1-12.15-9.3-22.59-22.72-22.71-12.35-.11-22.63 10.17-22.52 22.53.12 13.4 10.54 22.65 22.71 22.7 12.33.05 22.52-10.19 22.52-22.52ZM50.71 42.33c-.02 10.3-8.5 18.75-18.9 18.83-10.33.08-18.76-8.52-18.73-19.11.03-10.36 8.51-18.75 18.92-18.7 10.33.05 18.73 8.57 18.7 18.98Zm-4.61-.03c.02-7.99-6.18-14.3-14.07-14.33-8.11-.04-14.35 6.14-14.36 14.21-.02 8.06 6.27 14.43 14.24 14.43 7.87 0 14.18-6.37 14.2-14.3Z"/><path class="d" d="M127.1 106.3c.03-9.16 7.68-16.72 16.83-16.64 9.1.08 16.7 7.76 16.7 16.87 0 9.11-7.63 16.77-16.75 16.82-9.32.05-16.81-7.56-16.78-17.06Zm28.91.23c0-6.81-5.39-12.23-12.18-12.26-6.75-.03-12.14 5.4-12.15 12.23 0 6.82 5.45 12.36 12.12 12.31 6.78-.06 12.21-5.52 12.21-12.28Z"/></g></g></svg>