<svg xmlns="http://www.w3.org/2000/svg" viewBox="0 0 165.82 137.5"><defs><style>.d,.e{stroke:#fff}.d{fill:#fff;stroke-miterlimit:10}.e{fill:none;stroke-linecap:round;stroke-linejoin:round;stroke-width:4px}</style></defs><g id="b"><g id="c"><path class="d" d="M64.89 3.81c2.19-.03 3.79.85 5.39 1.59 1.9.88 3.42.67 4.74-.99.46-.58 1.04-1.07 1.58-1.59 3.13-3.04 6.99-3.12 10.14-.08 4.07 3.92 2.96 4.02 8.69 1.73 4.09-1.63 7.59-.13 9.27 3.97 2.31 5.63 1.61 4.64 7.07 4.72 4.61.07 7.25 2.71 7.24 7.35 0 5.65-.27 4.91 4.64 7.01 4.51 1.92 5.84 5.27 3.99 9.8-2.07 5.04-2.14 4.1 1.61 7.91 3.43 3.48 3.42 7.11-.02 10.57-3.65 3.69-3.69 2.89-1.62 7.94 1.89 4.61.47 7.92-4.09 9.89-4.63 2.01-4.54 1.03-4.52 6.73.02 4.91-2.63 7.54-7.56 7.61-5.25.08-4.46-.77-6.69 4.5-1.91 4.5-5.22 5.79-9.8 3.99-4.9-1.92-3.79-2.57-8.04 1.66-3.4 3.38-7 3.36-10.43-.06-4.22-4.21-3.2-3.49-8.06-1.57-4.55 1.8-7.87.45-9.75-4.07-2.17-5.23-1.51-4.46-6.56-4.42-4.41.04-7.97-2.86-7.72-7.7.29-5.68.05-4.72-4.35-6.62-4.7-2.03-6.1-5.27-4.18-9.98.02-.05.04-.11.06-.16 1.72-4.26 2.19-4.05-1.54-7.48-3.67-3.37-3.67-7.29-.18-10.85 3.72-3.79 3.68-2.76 1.58-7.92-1.84-4.55-.51-7.81 4-9.78 4.73-2.06 4.39-1.1 4.51-6.55.12-5.46 2.66-7.78 8.12-7.8 4.82-.01 4.12.5 6.21-4.45 1.4-3.31 3.54-4.92 6.27-4.89ZM39.79 67.1c-.05 1.03.55 1.6 1.4 1.97 1.21.53 2.45 1.01 3.66 1.55 2.68 1.19 4.07 3.3 4.26 6.19.08 1.26 0 2.53.03 3.8.04 1.83.64 2.51 2.45 2.64 1.26.09 2.53.06 3.8.04 2.93-.05 4.91 1.4 6.16 3.93.59 1.18 1.01 2.45 1.55 3.65.75 1.68 1.61 2.04 3.3 1.4 1.13-.43 2.23-.93 3.35-1.38 2.87-1.18 5.41-.61 7.61 1.53.66.64 1.3 1.3 1.96 1.95 2.04 2.02 2.81 2.01 4.86-.02 4.86-4.83 5.88-5.04 12.14-2.39.05.02.11.04.16.06 2.45 1.02 3.16.72 4.22-1.78.16-.37.3-.75.45-1.12 2.09-4.98 3.35-5.82 8.71-5.82 4.4 0 4.5-.1 4.5-4.58 0-5.1 1.15-6.81 5.9-8.76 4.04-1.66 4.14-1.9 2.46-5.98-1.95-4.75-1.59-6.58 2.01-10.18q3.26-3.26 0-6.53c-3.54-3.54-3.94-5.47-2.08-10.04q1.8-4.43-2.61-6.24c-4.45-1.84-5.67-3.63-5.67-8.38q0-4.76-4.75-4.77c-4.78 0-6.49-1.14-8.3-5.5q-1.88-4.52-6.35-2.69c-4.39 1.8-6.46 1.4-9.79-1.93q-3.44-3.43-6.87-.01C75.02 11 72.93 11.43 68.7 9.7c-4.59-1.87-4.71-1.92-6.49 2.65-1.52 3.92-4.14 5.66-8.34 5.52-4.75-.16-4.76-.03-4.76 4.71 0 4.79-1.2 6.57-5.65 8.4-4.39 1.8-4.43 1.9-2.59 6.29 1.82 4.34 1.4 6.48-1.9 9.78q-3.47 3.47.06 7.01c3.24 3.25 3.63 5.28 1.89 9.62-.45 1.11-1.08 2.17-1.14 3.42Z"/><path class="d" d="M81.67 81.46c-17.07-.02-31.06-13.99-30.92-31.09.15-16.77 13.31-30.85 31-30.84 18.26 0 31.05 14.79 31.01 31.19-.05 16.95-14.01 30.75-31.09 30.74Zm.08-57.25c-14.48 0-26.34 11.8-26.34 26.23 0 14.58 11.77 26.35 26.37 26.34 14.54 0 26.29-11.71 26.31-26.2.02-14.59-11.74-26.37-26.33-26.37Z"/><path class="d" d="M75.05 61.37c-.12-.03-.45-.02-.66-.18-2.11-1.51-3.97-3.31-5.44-5.45-.59-.85-.21-1.8.49-2.51.72-.73 1.61-.87 2.54-.45.41.19.77.5 1.1.81q2.32 2.13 4.51-.06c4.11-4.11 8.21-8.22 12.32-12.32.45-.44.89-.92 1.42-1.25 1.02-.64 2-.42 2.8.43.76.8.86 1.73.3 2.69-.17.29-.41.56-.65.8-5.49 5.49-10.98 10.98-16.46 16.47-.58.58-1.21 1.07-2.26 1.02Z"/><path class="e" d="M40.38 72.24 2 110.62h23.82v24.88l41.03-41.03M124.02 72.24l39.8 38.38h-24.7v24.88L96.58 94.47"/></g></g></svg>