<?xml version="1.0" encoding="UTF-8"?><svg xmlns="http://www.w3.org/2000/svg" viewBox="0 0 123.52 108.02"><defs><style>.d{fill:#fff;stroke:#fff;stroke-miterlimit:10;}</style></defs><g id="a"/><g id="b"><g id="c"><path class="d" d="M49.43,22.06c2.24,.62,4.4,1.12,6.28,2.25,1.42,.86,2.34,.73,3.62-.37,4.89-4.2,10.67-6.23,17.08-6.49,.97-.04,1.06-.21,.59-1.07-1.8-3.24-1.13-6.81,1.69-9.23,1.93-1.65,3.88-3.27,5.86-4.86,3.41-2.73,7.73-2.32,10.52,1.03,8.76,10.55,17.5,21.12,26.22,31.7,2.66,3.22,2.2,7.67-1,10.36-1.94,1.63-3.9,3.24-5.87,4.84-2.65,2.15-5.75,2.38-8.65,.57-.88-.55-1.07-.39-1.27,.57-1.3,6.14-4.39,11.25-9.14,15.33-.74,.64-.73,1.05-.11,1.72,.8,.86,1.53,1.78,2.27,2.7,1.96,2.43,2.2,5.36,.56,8.02-1.69,2.74-4.15,4.26-7.42,4.27-.85,0-1.19,.27-1.34,1.12-.73,4.05-4.22,6.9-8.39,6.88-.68,0-1.11,.04-1.24,.89-.67,4.47-4.92,7.56-8.97,7.19-.73-.07-.67,.36-.74,.82-.6,4.16-4.4,7.36-8.61,7.22-1.83-.06-3.38-.77-4.57-2.19-.97-1.16-1.95-2.32-2.9-3.5-.47-.59-.87-.72-1.47-.15-.77,.72-1.62,1.37-2.45,2.03-2.49,2-5.77,2.2-8.36,.53-2.56-1.66-3.71-4.66-2.85-7.75,.28-1.01,0-1.03-.86-.92-4.01,.54-7.97-3.32-7.49-7.34,.11-.93-.16-1.18-.99-1.33-4.11-.74-6.34-3.44-6.12-7.53,.06-1.14-.64-1-1.24-1.1-4.36-.78-6.86-4.76-5.62-8.97,.4-1.35,1.2-2.44,2.26-3.34,.87-.74,1.73-1.47,2.62-2.18,.55-.43,.61-.83,.24-1.45-2.04-3.38-3.35-7.03-3.87-10.95-.06-.49-.11-.98-.13-1.47-.06-1.34-.08-1.36-1.24-.73-2.73,1.47-5.84,1.21-8.19-.71-1.15-.94-1.96-2.21-2.92-3.32-.99-1.15-1.93-2.33-2.89-3.51C-.45,38.21-.04,33.86,3.36,31.04,13.89,22.32,24.42,13.6,34.97,4.89c3.23-2.67,7.38-2.38,10.18,.73,1.84,2.06,3.6,4.2,5.29,6.38,2.01,2.6,2.43,6.45-1,10.05Zm1.16,65.31c.39,.02,.99,0,1.58,.17,4.74,1.27,6.7,6.68,3.86,10.82-.47,.68-.54,1.11,.06,1.74,.88,.94,1.7,1.94,2.46,2.98,.96,1.3,2.22,1.81,3.76,1.59,2.16-.31,3.71-1.51,4.55-3.5,.74-1.75,.22-3.25-1.01-4.69-3.17-3.72-6.25-7.51-9.36-11.28-1.62-1.96-3.24-3.91-4.85-5.87-.58-.7-.72-1.47,0-2.12,.74-.66,1.47-.4,2.09,.28,.18,.2,.34,.4,.51,.61,4.73,5.72,9.47,11.44,14.19,17.17,.96,1.17,2.19,1.61,3.63,1.41,1.53-.22,2.76-1.01,3.72-2.21,1.54-1.94,1.52-3.87-.05-5.76-3.05-3.68-6.09-7.35-9.13-11.03-1.76-2.13-3.52-4.26-5.28-6.4-.58-.71-.72-1.46,.03-2.11,.77-.66,1.47-.36,2.09,.3,.1,.11,.2,.23,.29,.35,4.76,5.75,9.53,11.48,14.27,17.25,1.17,1.43,2.56,1.88,4.33,1.46,4-.96,5.42-5.08,2.82-8.2-3.83-4.6-7.63-9.22-11.44-13.84-.94-1.14-1.9-2.27-2.8-3.43-.51-.66-.49-1.36,.17-1.92,.66-.55,1.34-.43,1.93,.16,.22,.21,.4,.46,.59,.69,4.76,5.75,9.51,11.5,14.26,17.26,.55,.67,1.21,1.14,2.07,1.3,2.16,.42,4.58-.78,5.75-2.84,1.04-1.83,.77-3.49-.8-5.38-5.23-6.24-10.45-12.5-15.67-18.75-3.91-4.68-7.83-9.35-11.72-14.05-.57-.69-.99-.73-1.66-.13-1.16,1.03-2.4,1.97-3.59,2.97-3.37,2.85-7.21,4.23-11.65,3.78-3.79-.39-6.94-2.05-9.46-4.88-.83-.94-.76-1.58,.17-2.44,.25-.23,.52-.44,.78-.66,4.09-3.38,8.18-6.75,12.26-10.14,.89-.74,.88-.88-.15-1.37-2.03-.95-4.17-1.56-6.38-1.97-.99-.18-1.7,0-2.48,.64-7.24,6.04-14.55,12.01-21.78,18.07-3.7,3.1-3.61,1.75-3.1,7.17,.34,3.59,1.52,6.94,3.35,10.05,.3,.52,.61,.67,1.19,.39,5.03-2.39,10.58,1.56,9.99,7-.07,.65,.04,.91,.79,.97,4.01,.32,6.69,3.58,6.32,7.65-.06,.7,.15,.91,.84,.98,4.37,.42,7.2,4.33,6.13,8.56-.27,1.06-.09,1.39,.97,1.19,.11-.02,.23,0,.56,0Zm51.57-39.22c.11-.69-.1-1.25-.55-1.79-6.96-8.4-13.91-16.8-20.86-25.21-.35-.43-.74-.69-1.33-.75-6.64-.6-12.64,1.08-17.83,5.25-5.64,4.53-11.15,9.22-16.75,13.8-.8,.66-.6,.97,.08,1.49,4.43,3.41,10.63,3.29,15.02-.33,1.9-1.57,3.79-3.14,5.7-4.7,1.07-.88,1.74-.82,2.61,.22,3.48,4.15,6.95,8.3,10.42,12.46,4.37,5.23,8.75,10.45,13.1,15.7,.63,.76,1.1,.96,1.9,.18,.92-.9,1.86-1.78,2.7-2.76,3.32-3.93,5.21-8.48,5.77-13.58ZM78.85,12.83c-.12,1.36,.62,2.4,1.46,3.41,8.53,10.29,17.05,20.59,25.57,30.89,2.11,2.55,4.57,2.79,7.11,.69,1.75-1.45,3.49-2.9,5.24-4.35,2.4-1.99,2.63-4.57,.65-6.97-4.9-5.92-9.8-11.85-14.69-17.77-3.72-4.49-7.42-8.99-11.15-13.48-1.82-2.18-4.35-2.61-6.43-.99-2.15,1.68-4.22,3.45-6.3,5.22-1,.85-1.54,1.96-1.46,3.35ZM3.35,36.87c-.08,1,.31,1.96,1.01,2.82,1.54,1.87,3.09,3.74,4.62,5.61,2.04,2.49,4.53,2.75,7.02,.69,6.43-5.3,12.85-10.61,19.27-15.92,4-3.31,8.01-6.6,11.98-9.94,2.26-1.89,2.6-4.37,.91-6.51-1.6-2.02-3.24-4-4.93-5.95-1.92-2.21-4.35-2.41-6.62-.53C26.03,15.87,15.48,24.62,4.92,33.37c-1.05,.87-1.6,2-1.58,3.5Zm37.96,61.19c-.01,1.99,.72,3.24,2.18,4.03,1.55,.83,3.11,.69,4.48-.37,1.77-1.36,3.5-2.78,5.17-4.26,1.83-1.62,1.97-4.1,.44-5.9-1.44-1.69-3.97-1.95-5.83-.5-1.7,1.33-3.33,2.74-4.98,4.14-.98,.83-1.51,1.88-1.47,2.87Zm-9.12-30.76c.04-1.82-.82-3.08-2.33-3.79-1.55-.73-3.12-.54-4.49,.54-1.66,1.32-3.29,2.68-4.9,4.05-1.84,1.58-2.1,4.11-.64,5.89,1.52,1.85,4.03,2.12,5.98,.57,1.66-1.32,3.29-2.67,4.91-4.04,1.01-.85,1.53-1.95,1.47-3.23Zm10.03,13.11c-.68-.02-1.46,.07-2.07,.55-1.98,1.58-4,3.12-5.84,4.86-1.56,1.48-1.51,3.86-.16,5.48,1.38,1.64,3.66,2.09,5.41,.86,2.08-1.45,4.04-3.07,5.84-4.85,1.28-1.27,1.43-2.93,.71-4.53-.71-1.57-2.01-2.43-3.89-2.37Zm-16.14-.78c0,1.99,.72,3.27,2.17,4.06,1.55,.84,3.11,.7,4.48-.35,1.77-1.36,3.5-2.78,5.16-4.26,1.84-1.63,1.99-4.09,.48-5.89-1.4-1.67-4-1.95-5.83-.52-1.73,1.35-3.4,2.77-5.06,4.2-.93,.8-1.45,1.83-1.4,2.77Z"/></g></g></svg>