<svg xmlns="http://www.w3.org/2000/svg" viewBox="0 0 178.61 155"><defs><style>.d{fill:#fff;stroke:#fff;stroke-miterlimit:10}</style></defs><g id="b"><g id="c"><path class="d" d="M95.33 150.44c-4.11-.12-8.04-1.29-12.02-2.13-11.75-2.46-23.49-5-35.24-7.49-2.79-.59-5.61-.55-8.43-.17-1.07.15-1.41.53-1.24 1.72.67 4.67-1.47 7.78-6.05 8.94-4 1.01-8.02 2-12.04 2.94-4.38 1.03-8.11-1.21-9.16-5.61A9485.22 9485.22 0 0 1 .73 104.36c-.98-4.23 1.23-7.88 5.43-9.01 4.2-1.13 8.42-2.19 12.66-3.16 4.05-.93 7.31.83 8.89 4.71.41 1 .89 1.19 1.85.83 2.4-.88 4.79-1.79 7.11-2.87 6.43-2.99 13.2-3.37 20.11-2.57 10.13 1.16 19.55 4.64 28.62 9.09 4.51 2.21 9.1 3.28 14.13 3.25 8.6-.06 17.18.36 25.51 2.84 3.04.91 5.98 2.08 8.19 4.51.69.76 1.35.36 2.08.16 10.32-2.79 19.95-7.09 28.83-13.06.99-.67 2.04-1.26 3.1-1.81 3.38-1.74 7.31-.83 9.45 2.16 2.24 3.12 1.87 7.31-1.09 9.89-2.58 2.25-5.36 4.27-8.06 6.38-6.91 5.38-13.86 10.7-20.73 16.14-3.64 2.89-8.02 4.08-12.24 5.63-10.51 3.86-21.06 7.65-31.58 11.47-2.47.9-4.99 1.53-7.64 1.5ZM51.27 96.41c-4.06-.03-8.05.39-11.8 2.05-2.93 1.3-5.87 2.6-8.92 3.61-1.03.34-1.38.84-1.13 1.92 2.46 10.37 4.9 20.73 7.3 31.11.27 1.15.76 1.55 1.93 1.31 3.9-.79 7.78-.46 11.64.37 13.6 2.92 27.21 5.79 40.81 8.73 3.56.77 6.98.6 10.41-.66 12.25-4.5 24.52-8.95 36.79-13.39 2.43-.88 4.61-2.15 6.64-3.75 5.04-3.97 10.13-7.88 15.2-11.82l12.11-9.41c1.09-.84 1.57-1.93 1.24-3.29-.3-1.23-1.11-1.97-2.32-2.26-1.11-.26-2.01.34-2.89.86-3.14 1.84-6.27 3.72-9.41 5.56-3.47 2.04-6.88 4.16-10.79 5.33-3.8 1.13-7.54 2.47-11.31 3.71-.56.19-1.22.27-1.31 1.02-.59 4.55-3.87 6.28-7.75 7.28-5.74 1.48-11.55.98-17.35.39-5.67-.59-11.29-1.78-17.03-1.42-2.27.14-4.58.25-6.46 1.84-1.44 1.22-2.63 1.23-3.54.11-.89-1.09-.65-2.35.72-3.55 1.74-1.53 3.87-2.18 6.1-2.52 4.55-.69 9.11-.44 13.65.19 5.76.8 11.53 1.61 17.36 1.4 2.71-.1 5.44-.33 7.91-1.65 2.3-1.23 2.55-3.04.63-4.83-.59-.55-1.3-.99-2-1.39-1.72-.97-3.59-1.54-5.5-2.01-7.82-1.95-15.82-2.18-23.81-2.21-5.08-.02-9.79-1.06-14.29-3.36-3.87-1.99-7.89-3.67-11.99-5.12-6.74-2.39-13.63-4.14-20.84-4.14Zm-32.52 53.58c.3-.05.9-.12 1.48-.26 3.49-.85 6.97-1.7 10.45-2.58 3.25-.82 3.93-1.92 3.18-5.15-3.3-14.08-6.6-28.15-9.91-42.23-.71-3.04-1.91-3.8-4.91-3.09-3.6.86-7.18 1.74-10.77 2.64-3.02.76-3.72 1.92-3.01 4.95 1.75 7.52 3.51 15.03 5.27 22.55 1.59 6.77 3.17 13.55 4.76 20.32.5 2.11 1.37 2.87 3.46 2.85Z"/><path class="d" d="M103.6 3.63c2.06-.02 3.58.81 5.09 1.5 1.8.83 3.23.64 4.47-.94.44-.55.99-1.01 1.49-1.51 2.96-2.87 6.6-2.94 9.58-.08 3.85 3.7 2.79 3.79 8.21 1.63 3.86-1.54 7.17-.12 8.75 3.75 2.18 5.32 1.52 4.39 6.68 4.46 4.35.06 6.85 2.56 6.84 6.94 0 5.34-.26 4.64 4.38 6.62 4.26 1.82 5.52 4.97 3.77 9.26-1.95 4.76-2.02 3.88 1.52 7.47 3.24 3.29 3.23 6.71-.02 9.99-3.44 3.48-3.48 2.73-1.53 7.5 1.78 4.35.45 7.48-3.86 9.34-4.38 1.89-4.29.98-4.27 6.35.02 4.64-2.48 7.12-7.14 7.19-4.96.07-4.21-.73-6.32 4.25-1.8 4.25-4.93 5.46-9.25 3.77-4.62-1.82-3.58-2.43-7.6 1.56-3.21 3.19-6.61 3.18-9.85-.06-3.99-3.98-3.03-3.3-7.61-1.48-4.3 1.7-7.43.42-9.21-3.85-2.05-4.94-1.43-4.21-6.19-4.17-4.17.04-7.52-2.7-7.29-7.27.27-5.36.04-4.46-4.11-6.26-4.44-1.92-5.76-4.98-3.95-9.43l.06-.15c1.63-4.02 2.07-3.83-1.45-7.06-3.46-3.18-3.47-6.88-.17-10.24 3.52-3.58 3.47-2.6 1.5-7.48-1.74-4.3-.48-7.38 3.78-9.24 4.46-1.94 4.14-1.04 4.26-6.19.11-5.16 2.51-7.35 7.66-7.36 4.55-.01 3.89.47 5.87-4.2 1.32-3.13 3.34-4.65 5.92-4.62ZM79.9 63.4c-.05.97.52 1.51 1.32 1.86 1.15.5 2.31.96 3.46 1.46 2.53 1.12 3.85 3.11 4.02 5.84.08 1.19 0 2.39.03 3.59.04 1.73.6 2.37 2.32 2.5 1.19.09 2.39.06 3.59.04 2.77-.05 4.64 1.32 5.82 3.71.55 1.12.96 2.31 1.47 3.45.71 1.59 1.52 1.93 3.11 1.32 1.07-.41 2.11-.88 3.17-1.31 2.71-1.11 5.1-.58 7.19 1.44.62.61 1.23 1.23 1.85 1.84 1.92 1.91 2.66 1.9 4.59-.02 4.59-4.57 5.56-4.76 11.46-2.26l.15.06c2.31.97 2.98.68 3.98-1.68.15-.35.28-.71.43-1.06 1.98-4.7 3.16-5.49 8.23-5.5 4.16 0 4.25-.1 4.25-4.32 0-4.82 1.09-6.43 5.57-8.28 3.82-1.57 3.91-1.79 2.32-5.64-1.85-4.48-1.51-6.21 1.89-9.61q3.08-3.08 0-6.17c-3.34-3.34-3.72-5.17-1.96-9.48q1.7-4.18-2.46-5.9c-4.2-1.73-5.35-3.43-5.36-7.91q0-4.5-4.48-4.5c-4.51 0-6.13-1.07-7.84-5.19q-1.77-4.27-6-2.54c-4.15 1.7-6.1 1.32-9.24-1.82q-3.25-3.24-6.48-.01c-3.11 3.11-5.08 3.51-9.08 1.88-4.34-1.77-4.45-1.81-6.13 2.51-1.43 3.7-3.91 5.34-7.88 5.21-4.49-.15-4.49-.03-4.5 4.45 0 4.53-1.14 6.21-5.33 7.93-4.15 1.7-4.18 1.8-2.45 5.94 1.72 4.1 1.33 6.12-1.79 9.24q-3.28 3.28.05 6.62c3.06 3.07 3.42 4.99 1.79 9.09-.42 1.05-1.02 2.05-1.07 3.23Z"/><path class="d" d="M119.44 76.97c-16.12-.01-29.34-13.21-29.2-29.36.14-15.84 12.57-29.14 29.28-29.13 17.24 0 29.32 13.97 29.28 29.46-.04 16.01-13.23 29.05-29.36 29.03Zm.07-54.07c-13.67 0-24.87 11.14-24.88 24.77 0 13.77 11.12 24.88 24.9 24.88 13.73 0 24.83-11.06 24.85-24.74.02-13.78-11.09-24.9-24.87-24.91Z"/><path class="d" d="M113.19 57.99c-.11-.03-.42-.02-.63-.17-2-1.43-3.75-3.13-5.14-5.15-.55-.8-.2-1.7.46-2.37.68-.69 1.52-.82 2.4-.42.38.18.72.47 1.04.76q2.19 2.01 4.26-.06c3.88-3.88 7.76-7.76 11.64-11.63.42-.42.84-.87 1.34-1.18.96-.6 1.89-.4 2.65.41.72.76.81 1.64.28 2.54-.16.28-.39.52-.62.75-5.18 5.19-10.37 10.37-15.55 15.56-.55.55-1.14 1.01-2.14.96Z"/></g></g></svg>