<svg xmlns="http://www.w3.org/2000/svg" viewBox="0 0 126.94 115.96"><defs><style>.d{fill:#fff;stroke:#fff;stroke-miterlimit:10}</style></defs><g id="b"><g id="c"><path class="d" d="M.5 64.23V16.36c0-2.75.45-3.2 3.21-3.2h72.8c2.05 0 3.11.64 3.12 1.87.01 1.24-1.06 1.9-3.09 1.9H6.43q-2.17 0-2.18 2.19v90.51q0 2.08 2.13 2.08h90.65q2.03 0 2.03-1.99V64.68c.04-1.39.77-2.29 1.85-2.18 1.25.13 1.74.94 1.74 2.16-.01 4.58 0 9.16 0 13.74v34.14c0 2.37-.53 2.93-2.91 2.93H3.43c-2.36 0-2.94-.6-2.94-2.93v-48.3Z"/><path class="d" d="M126.44 11.51c-.03 2.27-1.31 4.79-3.48 6.96-8.79 8.76-17.56 17.55-26.33 26.33-12.68 12.68-25.36 25.37-38.04 38.05-4.98 4.98-10.83 4.99-15.8.02-6.58-6.57-13.15-13.15-19.72-19.73-3-3-4.07-6.54-2.73-10.62 1.31-4.01 4.22-6.32 8.33-6.96 3.34-.52 6.24.61 8.63 2.97 3.96 3.92 7.87 7.88 11.82 11.8 1.68 1.67 1.24 1.78 2.98.05 18.82-18.81 37.64-37.64 56.46-56.46 3.11-3.11 6.75-4.22 10.99-2.83 4.11 1.34 6.87 5.26 6.89 10.42Zm-102.91 44c-.08 1.98.67 3.57 2.05 4.95 6.76 6.73 13.49 13.48 20.23 20.22.82.82 1.72 1.47 2.84 1.79 2.9.83 5.22-.13 7.29-2.2 20.78-20.81 41.58-41.6 62.38-62.4.9-.9 1.84-1.77 2.69-2.72 3.29-3.65 1.69-9.34-3.03-10.69-2.8-.8-5.03.25-7.01 2.24C91.62 26.08 72.26 45.43 52.9 64.8c-1.98 1.98-2.57 1.98-4.53.03-4.61-4.6-9.2-9.22-13.83-13.81-2.03-2.01-4.5-2.35-7.07-1.34-2.57 1.02-3.85 3.06-3.95 5.83Z"/></g></g></svg>