<?xml version="1.0" encoding="UTF-8"?><svg xmlns="http://www.w3.org/2000/svg" viewBox="0 0 230.64 147.5"><defs><style>.d{fill:#fff;}</style></defs><g id="a"/><g id="b"><g id="c"><path class="d" d="M155.21,57.02c0,7,.22,14-.1,20.95-.15,2.97-.95,5.87-2.34,8.49-2.48,4.53-7.56,6.34-12.55,5.23-4.87-1.17-8.54-5.17-9.28-10.12-.21-2.09-.3-4.2-.25-6.3-.06-13.23-.11-26.47-.14-39.71,0-7.32,5.35-13,12.34-12.94s12.38,5.71,12.34,13.2c-.04,7.07-.02,14.14-.02,21.2Z"/><path class="d" d="M121.11,65.59c0,5.28,.05,10.56,0,15.83-.07,6.28-4.11,10.58-9.55,10.27-4.8-.28-8.36-4.69-8.37-10.52v-31.66c0-5.77,3.94-10,9.11-10s8.79,4.25,8.82,10v16.08Z"/><path class="d" d="M230.64,129.92v2.52H0v-2.52H230.64Z"/><path class="d" d="M93.33,72.42v11.71c0,4.23-2.76,7.4-6.4,7.48s-6.64-3-6.69-7.25c-.12-8.13-.12-16.25,0-24.38-.07-3.67,2.84-6.71,6.52-6.78,.1,0,.2,0,.3,0,3.61,.15,6.24,3.07,6.27,7s0,8.16,0,12.22Z"/><path class="d" d="M142.94,21.11c-5.83,.18-10.7-4.4-10.88-10.22-.18-5.83,4.4-10.7,10.22-10.88s10.7,4.4,10.88,10.22c0,.11,0,.23,0,.34,.06,5.73-4.5,10.43-10.23,10.54Z"/><path class="d" d="M112.27,37.06c-4.42,.11-8.08-3.39-8.19-7.81v-.07c0-4.44,3.56-8.06,8-8.14,4.42-.08,8.06,3.44,8.14,7.86v.07c.09,4.38-3.39,8-7.77,8.09-.06,0-.12,0-.18,0Z"/><path class="d" d="M86.8,39c3.49-.11,6.41,2.63,6.52,6.12,0,.08,0,.16,0,.23-.08,3.48-2.9,6.27-6.38,6.31-3.56,.05-6.52-2.73-6.7-6.29,.04-3.56,2.97-6.41,6.53-6.37h.03Z"/><path class="d" d="M31.94,125.27c-3.04,1.76-6.49,2.69-10,2.67-1.93,.02-3.85-.3-5.67-.94-1.68-.6-3.22-1.55-4.52-2.77-1.3-1.25-2.33-2.76-3-4.44-.71-1.73-1.07-3.59-1.05-5.46-.14-3.73,1.35-7.35,4.1-9.88,2.72-2.51,6.33-3.76,10.8-3.76,3.2,0,6.36,.73,9.22,2.15v6.17c-1.36-.9-2.83-1.6-4.38-2.11-1.42-.45-2.91-.69-4.4-.69-2.3-.13-4.55,.65-6.28,2.16-1.58,1.58-2.41,3.77-2.28,6-.11,2.18,.68,4.31,2.18,5.89,1.57,1.52,3.69,2.32,5.87,2.21,1.62,0,3.23-.29,4.76-.84,1.65-.63,3.22-1.48,4.65-2.52v6.16Z"/><path class="d" d="M34.94,114.33c-.03-1.86,.31-3.7,1-5.42,.7-1.69,1.76-3.2,3.09-4.45,1.31-1.24,2.86-2.19,4.55-2.8,3.68-1.24,7.68-1.24,11.36,0,3.44,1.25,6.2,3.88,7.62,7.25,1.39,3.48,1.39,7.35,0,10.83-.7,1.67-1.75,3.18-3.08,4.42-1.32,1.24-2.88,2.2-4.57,2.83-3.65,1.26-7.63,1.26-11.28,0-1.69-.63-3.23-1.6-4.54-2.84-1.35-1.23-2.43-2.73-3.15-4.41-.69-1.72-1.03-3.56-1-5.41Zm6.78,0c-.08,2.13,.68,4.21,2.12,5.79,2.93,2.99,7.72,3.03,10.71,.1,.04-.03,.07-.07,.1-.1,2.82-3.35,2.82-8.25,0-11.6-2.91-2.99-7.69-3.04-10.68-.13-.05,.04-.09,.09-.13,.13-1.45,1.58-2.22,3.67-2.14,5.81h.02Z"/><path class="d" d="M75.57,110.93v16.54h-6.51v-26.33h5.77l14.11,15.7v-15.7h6.51v26.33h-5.16l-14.72-16.54Z"/><path class="d" d="M102.94,127.47v-26.33h17.6v4.86h-11v5.36h10.52v4.89h-10.55v6.29h11.33v4.93h-17.9Z"/><path class="d" d="M122.28,127.47l11.11-13.64-10.45-12.69h8.28l6.29,7.72,6.32-7.72h8.24l-10.52,12.61,11.48,13.72h-8.47l-7.05-8.6-7,8.6h-8.23Z"/><path class="d" d="M155.61,127.47v-26.33h6.79v26.33h-6.79Z"/><path class="d" d="M166.41,114.33c-.03-1.86,.31-3.7,1-5.42,.7-1.69,1.76-3.2,3.09-4.45,1.3-1.24,2.84-2.2,4.53-2.81,3.68-1.23,7.65-1.23,11.33,0,3.44,1.25,6.19,3.88,7.61,7.25,1.4,3.47,1.4,7.36,0,10.83-.69,1.67-1.72,3.18-3.03,4.43-1.32,1.23-2.87,2.2-4.56,2.83-3.65,1.26-7.63,1.26-11.28,0-1.69-.63-3.24-1.6-4.55-2.84-1.33-1.24-2.38-2.75-3.08-4.42-.71-1.71-1.07-3.55-1.06-5.4Zm6.77,0c-.08,2.13,.68,4.21,2.12,5.79,2.93,2.99,7.73,3.03,10.72,.1,.03-.03,.07-.07,.1-.1,2.82-3.35,2.82-8.25,0-11.6-2.92-2.99-7.7-3.05-10.69-.13-.04,.04-.09,.09-.13,.13-1.44,1.59-2.2,3.67-2.12,5.81Zm4.76-15.73l3.84-6.54h4.16l-5.55,6.54h-2.45Z"/><path class="d" d="M205.74,110.93v16.54h-6.51v-26.33h5.78l14.11,15.7v-15.7h6.51v26.33h-5.16l-14.73-16.54Z"/><path class="d" d="M9.12,142.76c0-.6,.12-1.2,.36-1.75,.24-.57,.6-1.08,1.05-1.5,.45-.43,.97-.77,1.55-1,.58-.23,1.2-.35,1.83-.35,.63,0,1.26,.12,1.85,.35,.58,.23,1.1,.57,1.55,1,.45,.43,.81,.95,1.05,1.52,.24,.57,.37,1.19,.36,1.81,0,1.23-.51,2.4-1.4,3.25-.45,.43-.98,.77-1.56,1-1.19,.46-2.5,.46-3.69,0-.57-.23-1.1-.57-1.54-1-.45-.43-.82-.95-1.06-1.52-.23-.57-.35-1.19-.35-1.81Zm1.37,0c0,.45,.08,.89,.25,1.31,.17,.42,.42,.79,.74,1.11,.31,.32,.69,.57,1.11,.74,.42,.18,.87,.26,1.32,.26,.46,0,.91-.08,1.33-.25,.41-.17,.79-.43,1.1-.75,.32-.32,.58-.69,.75-1.11,.17-.42,.26-.86,.26-1.31,0-.45-.09-.89-.26-1.3-.18-.42-.43-.8-.76-1.12-.31-.33-.69-.58-1.1-.76-.41-.15-.85-.23-1.29-.22-.45,0-.89,.09-1.3,.26-.42,.18-.8,.44-1.13,.76-.32,.31-.57,.69-.74,1.1-.18,.42-.27,.87-.28,1.32v-.04Z"/><path class="d" d="M25.59,138.29h1.28v5.17c-.02,.4,0,.8,.07,1.2,.05,.23,.16,.44,.31,.62,.27,.32,.61,.56,1,.7,.39,.17,.81,.25,1.24,.24,.66,.04,1.32-.16,1.85-.56,.47-.39,.73-.98,.71-1.59v-5.75h1.28v5.78c.04,.93-.36,1.83-1.07,2.44-.78,.65-1.78,.99-2.8,.94-.63,0-1.26-.11-1.85-.36-.54-.24-1.02-.61-1.39-1.07-.22-.27-.39-.59-.49-.93-.11-.52-.16-1.05-.14-1.58v-5.25Z"/><path class="d" d="M43.14,147.29v-7.83h-3.3v-1.17h7.89v1.17h-3.31v7.83h-1.28Z"/><path class="d" d="M53.81,146.59v-1.7c.33,.4,.72,.74,1.17,1,.36,.21,.77,.31,1.18,.31,.38,.02,.75-.09,1.06-.31,.26-.2,.4-.52,.38-.85,0-.28-.08-.55-.26-.77-.36-.39-.78-.73-1.24-1-.71-.41-1.36-.92-1.91-1.53-.27-.37-.4-.82-.39-1.28-.02-.65,.25-1.28,.74-1.72,.53-.46,1.21-.7,1.91-.67,.34,0,.68,.05,1,.15,.35,.11,.69,.26,1,.46v1.46c-.34-.27-.7-.5-1.09-.69-.32-.14-.66-.21-1-.21-.36-.02-.71,.09-1,.3-.25,.17-.4,.46-.39,.76,0,.45,.53,1,1.59,1.66l.19,.12c.66,.35,1.24,.84,1.7,1.42,.27,.46,.41,.99,.39,1.52,.02,.65-.25,1.27-.74,1.7-.53,.46-1.21,.7-1.91,.67-.44,0-.89-.06-1.31-.2-.39-.14-.75-.34-1.07-.6Z"/><path class="d" d="M65.35,142.76c0-.6,.12-1.2,.36-1.75,.51-1.14,1.44-2.04,2.6-2.51,.58-.23,1.2-.35,1.83-.35,.63,0,1.26,.12,1.85,.35,.58,.23,1.1,.57,1.55,1,.45,.43,.81,.95,1.05,1.52,.77,1.73,.37,3.75-1,5.06-.45,.43-.98,.77-1.56,1-1.19,.46-2.5,.46-3.69,0-.57-.23-1.1-.57-1.54-1-.45-.43-.82-.95-1.06-1.52-.25-.57-.38-1.18-.39-1.8Zm1.37,0c0,.45,.08,.89,.25,1.31,.17,.41,.42,.79,.74,1.11,.31,.32,.69,.57,1.11,.74,.42,.18,.87,.26,1.32,.26,.46,0,.91-.08,1.33-.25,.42-.17,.79-.43,1.11-.75,.32-.32,.57-.7,.74-1.11,.17-.42,.26-.86,.26-1.31,0-.45-.09-.89-.26-1.3-.18-.42-.43-.8-.76-1.12-.31-.33-.69-.58-1.1-.76-.42-.17-.87-.26-1.32-.26-.45,0-.89,.09-1.3,.26-.42,.18-.8,.44-1.13,.76-.32,.31-.57,.69-.74,1.1-.17,.43-.26,.89-.25,1.36v-.04Z"/><path class="d" d="M81.82,138.29h1.28v5.17c-.01,.41,.02,.82,.09,1.22,.06,.23,.16,.44,.31,.62,.27,.32,.61,.56,1,.7,.39,.17,.81,.25,1.24,.24,.68,.03,1.35-.19,1.88-.61,.47-.39,.74-.98,.72-1.59v-5.75h1.28v5.78c.03,.94-.37,1.83-1.08,2.44-.78,.65-1.78,.99-2.8,.94-.63,0-1.26-.11-1.85-.36-.54-.24-1.02-.61-1.39-1.07-.22-.27-.39-.59-.49-.93-.11-.52-.16-1.05-.14-1.58l-.05-5.22Z"/><path class="d" d="M96.94,147.29v-9h2.64c.76-.05,1.5,.18,2.1,.65,.51,.46,.78,1.13,.74,1.82,.03,.5-.11,1-.4,1.42-.33,.4-.78,.68-1.28,.81,.16,.09,.3,.2,.42,.33,.19,.21,.37,.44,.52,.68l2.18,3.29h-1.55l-1.55-2.36c-.29-.52-.67-.98-1.12-1.36-.29-.2-.64-.31-1-.3h-.38v4l-1.32,.02Zm1.3-5.1h1.06c.48,.03,.95-.09,1.35-.35,.58-.59,.58-1.53,0-2.12-.41-.25-.89-.37-1.37-.33h-1.06l.02,2.8Z"/><path class="d" d="M117.53,145.15v1.51c-.51,.27-1.05,.48-1.61,.63-.53,.14-1.07,.21-1.62,.21-.5,0-.99-.07-1.47-.2-.47-.14-.92-.34-1.33-.6-.65-.42-1.19-1-1.56-1.68-.37-.68-.56-1.44-.55-2.21,0-1.23,.51-2.41,1.4-3.25,.46-.44,1.02-.78,1.62-1,.64-.24,1.32-.35,2-.34,.51,0,1.01,.06,1.5,.18,.54,.12,1.07,.31,1.57,.54v1.4c-.51-.28-1.05-.52-1.61-.69-.47-.14-.97-.22-1.46-.22-.97-.03-1.91,.33-2.61,1-.66,.64-1.03,1.54-1,2.46-.03,.92,.34,1.8,1,2.44,.67,.67,1.59,1.03,2.54,1,.54,0,1.08-.09,1.59-.26,.57-.24,1.11-.54,1.6-.92Z"/><path class="d" d="M124.54,147.29v-9h1.29v9h-1.29Z"/><path class="d" d="M133.29,147.29v-9h1.12l5.92,7v-7h1.28v9h-1.14l-5.91-7v7h-1.27Z"/><path class="d" d="M156.68,142.88v3.78c-.54,.23-1.11,.43-1.68,.57-.49,.12-1,.19-1.51,.19-.52,0-1.03-.07-1.53-.2-.46-.13-.91-.33-1.31-.59-.65-.42-1.19-1-1.56-1.68-.37-.68-.56-1.45-.55-2.22,0-1.23,.51-2.41,1.4-3.25,.46-.44,1.01-.78,1.61-1,.64-.24,1.32-.35,2-.34,.51,0,1.02,.06,1.51,.18,.53,.13,1.05,.31,1.55,.54v1.4c-.51-.28-1.05-.52-1.61-.69-.47-.14-.97-.22-1.46-.22-.97-.03-1.91,.33-2.61,1-.66,.64-1.03,1.54-1,2.46-.03,.92,.34,1.81,1,2.44,.68,.66,1.6,1.03,2.55,1,.31,0,.62-.03,.93-.1,.34-.07,.68-.17,1-.3v-1.75h-1.69v-1.19l2.96-.03Z"/><path class="d" d="M172.19,146.59v-1.7c.33,.4,.72,.74,1.17,1,.36,.21,.77,.31,1.18,.31,.38,.02,.75-.09,1.06-.31,.25-.21,.39-.52,.38-.85,0-.28-.08-.55-.26-.77-.36-.39-.78-.73-1.24-1-.71-.4-1.36-.92-1.91-1.53-.27-.37-.4-.82-.39-1.28-.02-.65,.25-1.29,.74-1.72,.53-.46,1.21-.7,1.91-.67,.34,0,.68,.05,1,.15,.35,.11,.69,.27,1,.46v1.46c-.34-.27-.71-.51-1.1-.69-.32-.14-.66-.21-1-.21-.36-.02-.71,.09-1,.3-.24,.18-.38,.46-.38,.76,0,.45,.53,1,1.59,1.66l.19,.12c.66,.35,1.23,.84,1.69,1.42,.28,.46,.42,.98,.4,1.52,.01,.65-.26,1.27-.74,1.7-.53,.46-1.21,.7-1.91,.67-.45,0-.89-.06-1.32-.2-.38-.14-.74-.34-1.06-.6Z"/><path class="d" d="M184.13,146.66c0-.43,.35-.78,.78-.78,.43,0,.78,.35,.78,.78,0,.21-.08,.41-.23,.56-.31,.29-.79,.29-1.1,0-.15-.14-.23-.34-.23-.55Z"/><path class="d" d="M191.77,147.29l3.9-9h.94l4,9h-1.34l-1.2-2.63h-3.84l-1.14,2.65-1.32-.02Zm3-3.81h2.8l-1.42-3.24-1.38,3.24Z"/><path class="d" d="M206.64,146.66c0-.21,.07-.41,.22-.55,.15-.15,.35-.23,.56-.23,.21,0,.41,.08,.55,.23,.3,.3,.31,.79,.01,1.09-.15,.15-.35,.23-.56,.23-.21,0-.41-.07-.56-.22-.15-.14-.23-.34-.22-.55Z"/><path class="d" d="M215.07,146.59v-1.7c.33,.4,.72,.74,1.17,1,.36,.21,.77,.31,1.18,.31,.38,.02,.75-.09,1.06-.31,.25-.21,.39-.52,.38-.85,0-.28-.08-.55-.26-.77-.36-.39-.78-.73-1.24-1-.71-.4-1.36-.92-1.91-1.53-.27-.37-.4-.82-.39-1.28-.02-.65,.25-1.29,.74-1.72,.53-.46,1.21-.7,1.91-.67,.34,0,.68,.05,1,.15,.35,.11,.69,.27,1,.46v1.46c-.34-.27-.71-.51-1.1-.69-.32-.14-.66-.21-1-.21-.36-.02-.71,.09-1,.3-.24,.18-.38,.46-.38,.76,0,.45,.53,1,1.59,1.66l.19,.12c.66,.35,1.23,.84,1.69,1.42,.28,.46,.42,.98,.4,1.52,.01,.65-.26,1.27-.74,1.7-.53,.46-1.21,.7-1.91,.67-.45,0-.89-.06-1.32-.2-.38-.14-.74-.34-1.06-.6Z"/><path class="d" d="M227.01,146.66c0-.43,.35-.78,.78-.78,.43,0,.78,.35,.78,.78,0,.21-.08,.41-.23,.56-.31,.29-.79,.29-1.1,0-.15-.14-.23-.34-.23-.55Z"/></g></g></svg>