<?xml version="1.0" encoding="UTF-8"?><svg xmlns="http://www.w3.org/2000/svg" viewBox="0 0 466.84 389.77"><defs><style>.d{fill:#30326a;}.e{fill:#2b2e67;}.f{fill:#fefeff;}.g{fill:#2c2f68;}.h{fill:#2c2e67;}.i{fill:#292d63;}</style></defs><g id="a"/><g id="b"><g id="c"><g><path class="e" d="M0,279.92c2.77-7.66,5.61-15.3,8.28-22.99,6.5-18.65,12.95-37.33,19.33-56.02,.67-1.96,1.46-2.85,3.72-2.76,4.99,.21,10,.07,15.36,.07,9.03,27.28,18.08,54.59,27.26,82.31-5.28,0-10.32,.07-15.35-.09-.56-.02-1.35-1.22-1.59-2.01-1.64-5.45-3.1-10.95-4.78-16.38-.24-.78-1.31-1.84-2.01-1.85-9.5-.12-19-.08-28.68-.08-2.03,6.85-4.04,13.61-6.05,20.4H0v-.6Zm37.59-67.13l-.66-.06c-3.86,11.91-7.73,23.82-11.6,35.77h22.98c-3.62-12.07-7.17-23.89-10.71-35.71Z"/><path class="g" d="M122.38,181.04c-.29-.04-.44-.37-.29-.62,5.57-9.16,10.8-17.75,16.18-26.59-4.75-2.73-9.41-5.39-14.06-8.06-1.9-1.09-3.7-2.49-5.73-3.22-4.53-1.63-5.45-4.73-5.41-9.26-.18-18.37-.03-37.04-.18-55.56-.01-1.8,.47-2.9,1.99-3.9,3.09-2.03,6.02-4.29,9.02-6.46,3.17-2.3,3.32-3,1.22-6.33-3.27-5.21-4.56-10.78-3.28-16.9,2.44-11.62,14-19.75,26-18.2,13.64,1.75,22.99,13.55,20.57,27.07-.57,3.17-2.01,6.1-3.93,8.68-1.31,1.75-.95,2.98,.62,4.21,3.6,2.83,7.26,5.58,10.76,8.54,.76,.64,1.24,1.99,1.29,3.03,.16,3.48,.06,6.98,.06,10.64h30.04c0-2.96,0-5.93,0-8.9,0-9.51,.07-19.02-.06-28.53-.03-2.07,.69-3.28,2.29-4.43,3.73-2.66,7.35-5.49,11.24-8.41-5.07-6.62-8.04-13.64-5.22-22.1,1.02-3.05,2.7-5.86,4.93-8.18,9.97-10.37,26.98-9.87,36.29,.16,7.93,8.54,7.71,19.57-.55,29.7,4.04,3.09,8.17,6.07,12.05,9.35,.92,.78,1.4,4.15,1.41,5.48,.12,12.21,.08,22.85,.11,35.07,0,.19,.06,.38,.13,.77h30.49c0-3.2,.11-6.47-.04-9.73-.09-1.81,.54-2.93,1.98-3.98,4.19-3.06,8.28-6.26,12.58-9.53-.6-1.01-1.09-1.96-1.68-2.84-9.38-13.87-2.78-31.58,13.42-35.94,15.83-4.26,31.29,7.5,30.8,23.47-.14,4.4-1.54,8.42-4.06,12.05q-2.35,3.39,1.08,5.98c2.71,2.05,5.5,4.01,8.1,6.19,.77,.64,1.44,1.9,1.44,2.88,.08,20.22,.09,40.45-.01,60.67,0,1.1-.78,2.45-1.73,3-6.62,3.87-13.35,7.56-20.04,11.32-.95,.53-1.86,1.12-2.92,1.77,4.96,8.17,9.83,16.17,14.67,24.19,1.56,2.58,.98,3.63-1.95,3.63m-18.13-8.81l.49-1.54c-1.09-1.05-2.12-2.17-3.28-3.13-30.17-24.88-60.37-49.72-90.5-74.64-1.73-1.43-2.68-1.22-4.26,.1-8.83,7.37-17.75,14.63-26.65,21.91-22.45,18.36-44.91,36.71-67.35,55.07-.61,.5-1.07,1.19-1.97,2.22,64.97-.02,129.25,.26,193.52,.01Zm24.14-36.06c0-18.88,0-37.39-.04-55.89,0-.61-.4-1.42-.88-1.81-2.4-1.95-4.75-4.04-7.39-5.61-3.5-2.08-5.06-4.8-4.31-8.84,.35-1.88-.04-4.21,.95-5.59,3.92-5.51,4.88-11.21,1.66-17.15-3.43-6.33-9.13-9.1-16.24-8.59-12.49,.88-19.76,14.05-12.92,23.86,2.17,3.11,2.56,6,2.59,9.4,.02,1.75-.38,2.93-1.88,3.98-2.86,2-5.52,4.3-8.35,6.35-1.32,.96-1.9,1.97-1.88,3.67,.11,7.5,.03,15.01,.07,22.52,0,.86,.05,1.87,.47,2.56,6.04,9.99,12.13,19.96,18.27,29.89,.37,.6,1.3,1.2,1.98,1.21,9.19,.08,18.38,.05,27.91,.05Zm-236.07-.6c8.78,0,17.26-.07,25.74,.05,1.88,.03,2.89-.68,3.77-2.18,2.72-4.65,5.53-9.25,8.28-13.89,3.31-5.58,7.89-10.82,9.54-16.86,0-5.62,.53-12.26,.53-19.7,0-.3,.09-.64-.01-.89-.53-1.3-.79-2.9-1.72-3.8-3.3-3.2-6.86-6.13-10.26-9.22-2.84-2.58-3.03-7.78-.49-10.62,4.69-5.25,5.24-12.54,1.37-18.25-5.07-7.49-15.88-9.3-23.39-3.94-8.1,5.79-8.09,16.44-2.42,22.34,2.36,2.46,1.41,9.11-1.27,11.24-2.66,2.11-5.42,4.12-7.99,6.33-.79,.68-1.6,1.88-1.6,2.85-.09,18.7-.07,37.41-.07,56.53Zm140.64-48.15c0-11.6,.05-22.98-.08-34.37-.01-1.05-.91-2.36-1.78-3.08-2.86-2.34-5.9-4.46-8.86-6.68-3.26-2.43-3.75-8.7-.91-11.64,5.64-5.84,5.31-14.61-.8-19.99-4.46-3.92-9.75-5.08-15.41-3.92-5.84,1.2-10.29,4.5-12.12,10.4-1.58,5.09-.29,9.68,3.43,13.53,3.4,3.52,3.03,9.61-.82,12.58-1.9,1.47-3.74,3.06-5.79,4.27-4.05,2.38-5.81,5.61-5.08,10.37,.37,2.44,.07,4.99,.07,7.5,0,6.97,0,13.95,0,21.03h48.16Z"/><path class="g" d="M267.44,218.56v61.75h-13.6v-81.89h18.26c9.59,20.73,19.21,41.55,28.84,62.37l.46-.04v-62.39h13.82v82.15c-5.94,0-11.89,.06-17.84-.1-.59-.02-1.32-1.33-1.7-2.16-8.07-17.48-16.1-34.98-24.14-52.47-1.15-2.49-2.32-4.97-3.48-7.46l-.62,.23Z"/><path class="h" d="M444.76,239.95c4.58,1,7.25,3.36,8.93,6.91,.94,1.98,1.88,3.97,2.66,6.01,3.5,9.1,6.95,18.22,10.49,27.53h-17.53c-2.68-7.8-5.4-15.71-8.12-23.61-.1-.28-.19-.57-.29-.85-3.25-9.36-6.65-11.38-16.99-9.92v34.28h-16.55v-82.1c12.96,.34,25.87-1.03,38.6,1.84,10.37,2.34,15.64,8.49,15.98,18.48,.37,10.79-4.29,17.33-14.6,20.53-.65,.2-1.29,.45-2.58,.9Zm-20.72-5.77c2.63,0,5.11,.09,7.58-.03,1.69-.08,3.39-.33,5.03-.72,5.5-1.31,8.12-4.44,8.5-10.07,.1-1.49,.11-3-.02-4.48-.36-4.1-2.44-7.16-6.5-7.94-4.73-.91-9.59-1.17-14.59-1.73v24.98Z"/><path class="e" d="M234.4,211.77c-5.97-1.12-11.77-2.91-17.63-3.16-14.65-.63-23.53,6.65-26.51,21.01-1.74,8.37-1.5,16.75,1.41,24.85,5.26,14.67,18.39,17.14,29.36,14.11,.75-.21,1.75-1.37,1.76-2.1,.14-6.79,.08-13.59,.08-20.65h-12.47v-11.57h27.27c.08,.67,.19,1.24,.19,1.8,.01,12.91-.02,25.82,.04,38.74,0,1.56-.23,2.57-1.91,3.15-13.04,4.51-26.25,5.51-39.43,1.12-12.08-4.02-19.27-12.91-22.2-25.1-2.4-9.97-2.27-20.05,.47-29.98,4.07-14.74,16.05-24.96,31.21-26.97,9.06-1.2,17.93-.59,26.7,2.03,1.87,.56,2.54,1.34,2.3,3.35-.4,3.36-.48,6.76-.64,9.37Z"/><path class="e" d="M370.48,198.22c9.07,27.41,18.1,54.66,27.25,82.31-5.27,0-10.31,.07-15.34-.09-.57-.02-1.36-1.22-1.59-2.01-1.64-5.44-3.1-10.94-4.77-16.37-.24-.78-1.3-1.86-1.99-1.87-9.5-.12-18.99-.08-28.7-.08-2.02,6.82-4.03,13.58-6.02,20.31h-15.37c3.05-8.84,6.03-17.5,9.02-26.16,6.16-17.81,12.37-35.6,18.45-53.43,.7-2.06,1.63-2.74,3.79-2.67,4.99,.17,10,.05,15.29,.05Zm1.64,50.4c-3.66-12.17-7.22-24.03-10.78-35.89l-.62-.02c-3.87,11.92-7.74,23.83-11.66,35.91h23.06Z"/><path class="g" d="M124,199.07c-.27,4.37-.51,8.43-.73,12.01-5.45-.9-10.62-1.89-15.82-2.55-1.72-.22-3.6,.19-5.32,.64-7.39,1.97-9.62,10.13-4.09,15.44,2.21,2.12,4.95,3.69,7.47,5.47,4.8,3.39,9.91,6.41,14.38,10.2,7.53,6.39,10.29,14.69,7.25,24.27-3.01,9.51-10.19,14.56-19.63,16.47-8.54,1.73-16.89,.41-25.06-2.4-1.57-.54-2.2-1.33-1.98-3.05,.43-3.44,.67-6.9,.92-9.61,6.08,1.26,11.91,3,17.85,3.57,6.41,.61,11.29-2.42,12.76-6.88,1.9-5.77-1.03-9.9-5.18-13.28-2.85-2.32-6.09-4.16-9.13-6.25-3.46-2.37-7.03-4.59-10.3-7.2-7.11-5.7-9.31-13.27-7.45-22,1.75-8.2,7.23-13.16,14.94-15.71,9.67-3.19,19.29-2.11,29.12,.86Z"/><path class="d" d="M142.7,280.36v-81.96h15.47v81.96h-15.47Z"/><path class="i" d="M129.15,175.39c1.07-2.15,2.13-4.3,3.31-6.66,1.04,2.28-.72,5.47-3.3,6.66h0Z"/><path class="f" d="M395.76,369.08l-.2,.17c-.05-.07-.15-.15-.14-.21,0-.06,.12-.12,.18-.18l.15,.22Z"/><path class="f" d="M322.57,380.23l.41-.29v.29c-.14-.02-.29-.04-.45-.06l.04,.06Z"/><path class="g" d="M150.58,176.85v-.59"/><path class="g" d="M162.36,176.26l.02,.59"/><g><path class="g" d="M35.71,359.47c-.5,.14-.92,.39-1.25,.73-.34,.34-.58,.78-.74,1.31,.48,.17,.85,.4,1.12,.71,.27,.3,.41,.64,.41,1.02,0,.54-.18,1-.55,1.38s-.81,.56-1.33,.56c-.58,0-1.04-.21-1.4-.63-.36-.42-.54-.98-.54-1.68,0-1.07,.39-2.02,1.17-2.83,.78-.81,1.82-1.34,3.11-1.58v1.01Zm6.13,0c-.5,.14-.91,.38-1.24,.72-.33,.34-.57,.78-.74,1.32,.48,.17,.84,.4,1.1,.7,.26,.3,.39,.64,.39,1.03,0,.54-.18,1-.55,1.38s-.8,.56-1.31,.56c-.58,0-1.04-.21-1.4-.64-.36-.43-.54-.98-.54-1.67,0-1.07,.39-2.02,1.17-2.83,.78-.81,1.82-1.34,3.11-1.58v1.01Z"/><path class="g" d="M60.47,376.95l-.45,3.47c-1.1,.67-2.21,1.18-3.34,1.53s-2.26,.51-3.39,.51c-2.72,0-4.94-.92-6.65-2.76s-2.56-4.21-2.56-7.11c0-4.35,1.45-7.79,4.34-10.33,2.89-2.54,6.85-3.81,11.88-3.81,.39,0,.78,0,1.17,.02,.39,.02,.79,.04,1.2,.08l-.33,2.96c-.1,0-.24,0-.43-.02-.72-.03-1.21-.05-1.48-.05-3.97,0-7.12,1-9.45,3-2.33,2-3.49,4.68-3.49,8.06,0,2.06,.54,3.73,1.64,5,1.09,1.28,2.5,1.92,4.24,1.92,1.01,0,2.08-.2,3.22-.59,1.14-.39,2.43-1.02,3.88-1.88Z"/><path class="g" d="M65.66,382.05h-2.86l2.29-15.34h2.86l-.42,2.89c.75-1.17,1.43-1.99,2.03-2.44s1.26-.68,1.99-.68c.19,0,.39,.02,.61,.07s.45,.11,.69,.2l-.76,2.76c-.16-.03-.3-.06-.44-.07-.14-.02-.27-.03-.41-.03-.85,0-1.62,.32-2.31,.96-.69,.64-1.34,1.65-1.98,3.03l-1.29,8.67Z"/><path class="g" d="M86.27,377.56l-.48,3.09c-.89,.59-1.76,1.02-2.61,1.3-.86,.28-1.72,.42-2.58,.42-1.93,0-3.51-.67-4.74-2.03-1.23-1.35-1.85-3.09-1.85-5.21,0-2.55,.7-4.65,2.1-6.31,1.4-1.66,3.17-2.49,5.3-2.49,1.77,0,3.13,.52,4.07,1.55,.94,1.03,1.41,2.52,1.41,4.46v1.74h-9.7l-.07,1.01v.38c0,1.25,.36,2.29,1.08,3.13,.72,.83,1.6,1.25,2.66,1.25,.83,0,1.67-.18,2.53-.55,.86-.37,1.82-.95,2.88-1.76Zm-8.6-5.61h6.46v-.42c0-.86-.24-1.55-.71-2.06-.48-.51-1.12-.76-1.94-.76-.96,0-1.75,.26-2.37,.79-.61,.53-1.09,1.34-1.44,2.45Z"/><path class="g" d="M101.88,377.56l-.48,3.09c-.89,.59-1.76,1.02-2.61,1.3-.86,.28-1.72,.42-2.58,.42-1.93,0-3.51-.67-4.74-2.03-1.23-1.35-1.85-3.09-1.85-5.21,0-2.55,.7-4.65,2.1-6.31,1.4-1.66,3.17-2.49,5.3-2.49,1.77,0,3.13,.52,4.07,1.55,.94,1.03,1.41,2.52,1.41,4.46v1.74h-9.7l-.07,1.01v.38c0,1.25,.36,2.29,1.08,3.13,.72,.83,1.6,1.25,2.66,1.25,.83,0,1.67-.18,2.53-.55,.86-.37,1.82-.95,2.88-1.76Zm-8.6-5.61h6.46v-.42c0-.86-.24-1.55-.71-2.06-.48-.51-1.12-.76-1.94-.76-.96,0-1.75,.26-2.37,.79-.61,.53-1.09,1.34-1.44,2.45Z"/><path class="g" d="M104.98,382.05l2.32-15.34h2.96l-.35,2.14c.86-.84,1.72-1.47,2.56-1.88,.84-.42,1.69-.62,2.54-.62,.97,0,1.77,.25,2.39,.76,.62,.51,1.02,1.24,1.2,2.19,1.1-1.04,2.1-1.79,3-2.26,.91-.46,1.82-.7,2.74-.7,1.16,0,2.05,.35,2.67,1.05,.62,.7,.93,1.72,.93,3.06,0,.28-.02,.62-.07,1.05-.04,.42-.11,.88-.18,1.38l-1.36,9.16h-2.96l1.46-9.93c.04-.29,.08-.56,.11-.81,.03-.25,.04-.49,.04-.71,0-.6-.15-1.05-.45-1.35-.3-.3-.74-.46-1.33-.46-.71,0-1.45,.26-2.22,.78-.77,.52-1.57,1.29-2.39,2.32l-1.51,10.16h-2.92l1.46-9.93c.04-.29,.08-.56,.11-.81,.03-.25,.04-.49,.04-.71,0-.6-.15-1.05-.45-1.35-.3-.3-.74-.46-1.33-.46-.71,0-1.45,.26-2.22,.78-.77,.52-1.57,1.29-2.39,2.32l-1.43,10.16h-2.97Z"/><path class="g" d="M130.62,375.52c0-2.56,.72-4.72,2.17-6.49s3.17-2.66,5.17-2.66c1.88,0,3.37,.61,4.46,1.83,1.09,1.22,1.64,2.9,1.64,5.04,0,2.62-.72,4.79-2.16,6.52-1.44,1.72-3.25,2.58-5.43,2.58-1.82,0-3.24-.61-4.28-1.82-1.04-1.21-1.56-2.88-1.56-5Zm7.44-6.71c-1.16,0-2.17,.68-3.03,2.04-.86,1.36-1.29,2.99-1.29,4.9,0,1.31,.26,2.33,.77,3.09s1.21,1.13,2.08,1.13c1.26,0,2.3-.65,3.12-1.96,.82-1.31,1.23-3,1.23-5.08,0-1.31-.25-2.32-.76-3.04-.5-.72-1.21-1.08-2.13-1.08Z"/><path class="g" d="M145.99,380.24l.71-2.86c1.03,.83,1.91,1.42,2.63,1.78,.72,.36,1.4,.54,2.03,.54,.6,0,1.09-.15,1.48-.45,.39-.3,.58-.67,.58-1.13,0-.71-.91-1.7-2.72-2.97l-.07-.05c-1.43-1.01-2.34-1.82-2.73-2.42-.39-.61-.59-1.32-.59-2.12,0-1.25,.45-2.26,1.34-3.03,.89-.77,2.08-1.15,3.56-1.15,.9,0,1.75,.13,2.56,.4s1.58,.66,2.3,1.2l-.25,3.09c-.87-.69-1.71-1.2-2.51-1.54s-1.54-.51-2.24-.51c-.54,0-.98,.12-1.31,.37-.33,.25-.5,.57-.5,.97,0,.6,.7,1.38,2.11,2.36,.64,.44,1.15,.8,1.53,1.08,.95,.73,1.62,1.41,1.99,2.03,.38,.63,.56,1.34,.56,2.15,0,1.28-.47,2.33-1.4,3.15-.94,.82-2.13,1.23-3.59,1.23-.93,0-1.83-.17-2.71-.51-.88-.34-1.8-.87-2.76-1.6Z"/><path class="g" d="M180.53,377.56l-.48,3.09c-.89,.59-1.76,1.02-2.61,1.3-.86,.28-1.72,.42-2.58,.42-1.93,0-3.51-.67-4.74-2.03-1.23-1.35-1.85-3.09-1.85-5.21,0-2.55,.7-4.65,2.1-6.31,1.4-1.66,3.17-2.49,5.3-2.49,1.77,0,3.13,.52,4.07,1.55,.94,1.03,1.41,2.52,1.41,4.46v1.74h-9.7l-.07,1.01v.38c0,1.25,.36,2.29,1.08,3.13,.72,.83,1.6,1.25,2.66,1.25,.83,0,1.67-.18,2.53-.55,.86-.37,1.82-.95,2.88-1.76Zm-8.6-5.61h6.46v-.42c0-.86-.24-1.55-.71-2.06-.48-.51-1.12-.76-1.94-.76-.96,0-1.75,.26-2.37,.79-.61,.53-1.09,1.34-1.44,2.45Z"/><path class="g" d="M183.63,382.05l2.32-15.34h2.96l-.38,2.46c.95-.95,1.88-1.66,2.77-2.12s1.79-.7,2.67-.7c1.15,0,2.04,.37,2.68,1.1,.64,.74,.95,1.77,.95,3.11,0,.33-.02,.69-.05,1.09-.03,.39-.08,.81-.15,1.25l-1.36,9.15h-2.96l1.39-9.89c.04-.32,.08-.61,.1-.88,.02-.27,.03-.48,.03-.65,0-.6-.15-1.05-.45-1.35-.3-.3-.74-.46-1.33-.46-.71,0-1.45,.26-2.22,.78-.77,.52-1.57,1.29-2.39,2.32l-1.63,10.13h-2.97Z"/><path class="g" d="M214.1,375.56c-.09,.49-.16,.9-.2,1.25-.04,.34-.07,.64-.07,.9,0,.64,.16,1.12,.47,1.44,.32,.32,.79,.47,1.44,.47,.37,0,.77-.08,1.2-.22,.44-.15,.89-.37,1.37-.67v2.69c-.65,.33-1.27,.58-1.84,.74-.58,.16-1.12,.24-1.63,.24-1.23,0-2.23-.38-3-1.14-.77-.76-1.15-1.76-1.15-3,0-.33,.03-.7,.08-1.11,.06-.41,.15-.96,.3-1.64l1.36-6.61h-2.59l.48-2.17h2.62l.75-3.22h3.02l-.71,3.22h3.02l-.5,2.17h-3.04l-1.39,6.67Z"/><path class="g" d="M224.03,382.05h-2.96l2.24-15.34h2.95l-2.24,15.34Zm-.2-20.1c0-.46,.16-.84,.47-1.16s.7-.47,1.15-.47,.82,.16,1.13,.48c.31,.32,.46,.7,.46,1.15s-.16,.83-.46,1.14c-.31,.31-.69,.47-1.13,.47-.47,0-.85-.15-1.16-.46-.31-.31-.46-.69-.46-1.15Z"/><path class="g" d="M239.64,389.77h-3.05l4.15-8.67-2.76-14.39h2.89l1.94,10.08,4.83-10.08h3.15l-11.16,23.06Z"/><path class="g" d="M272.69,377.56l-.48,3.09c-.89,.59-1.76,1.02-2.61,1.3-.86,.28-1.72,.42-2.58,.42-1.93,0-3.51-.67-4.74-2.03-1.23-1.35-1.85-3.09-1.85-5.21,0-2.55,.7-4.65,2.1-6.31,1.4-1.66,3.17-2.49,5.3-2.49,1.77,0,3.13,.52,4.07,1.55,.94,1.03,1.41,2.52,1.41,4.46v1.74h-9.7l-.07,1.01v.38c0,1.25,.36,2.29,1.08,3.13,.72,.83,1.6,1.25,2.66,1.25,.83,0,1.67-.18,2.53-.55,.86-.37,1.82-.95,2.88-1.76Zm-8.6-5.61h6.46v-.42c0-.86-.24-1.55-.71-2.06s-1.12-.76-1.94-.76c-.96,0-1.75,.26-2.37,.79-.61,.53-1.09,1.34-1.44,2.45Z"/><path class="g" d="M275.79,382.05l2.32-15.34h2.96l-.38,2.46c.95-.95,1.88-1.66,2.77-2.12s1.79-.7,2.67-.7c1.15,0,2.04,.37,2.68,1.1,.64,.74,.96,1.77,.96,3.11,0,.33-.02,.69-.05,1.09-.03,.39-.08,.81-.15,1.25l-1.36,9.15h-2.96l1.39-9.89c.04-.32,.08-.61,.1-.88,.02-.27,.03-.48,.03-.65,0-.6-.15-1.05-.45-1.35-.3-.3-.74-.46-1.33-.46-.71,0-1.45,.26-2.22,.78s-1.57,1.29-2.39,2.32l-1.63,10.13h-2.97Z"/><path class="g" d="M306.25,375.56c-.09,.49-.16,.9-.2,1.25s-.07,.64-.07,.9c0,.64,.16,1.12,.47,1.44,.31,.32,.79,.47,1.44,.47,.37,0,.77-.08,1.2-.22,.44-.15,.89-.37,1.37-.67v2.69c-.65,.33-1.27,.58-1.84,.74-.58,.16-1.12,.24-1.63,.24-1.23,0-2.23-.38-3-1.14-.77-.76-1.15-1.76-1.15-3,0-.33,.03-.7,.08-1.11s.16-.96,.3-1.64l1.36-6.61h-2.59l.48-2.17h2.62l.75-3.22h3.02l-.71,3.22h3.02l-.5,2.17h-3.04l-1.39,6.67Z"/><path class="g" d="M327.55,366.71l-2.27,15.34h-2.96l.33-2.49c-.95,.96-1.88,1.67-2.77,2.13-.9,.46-1.79,.69-2.67,.69-1.15,0-2.04-.37-2.68-1.1-.64-.73-.95-1.77-.95-3.1,0-.34,.02-.71,.05-1.1,.03-.39,.08-.81,.15-1.25l1.39-9.11h2.94l-1.36,9.76c-.04,.31-.08,.6-.11,.88-.03,.28-.04,.49-.04,.65,0,.6,.15,1.05,.46,1.35,.3,.3,.75,.46,1.32,.46,.71,0,1.45-.26,2.22-.78s1.57-1.29,2.39-2.32l1.61-9.99h2.96Z"/><path class="g" d="M343.42,375.56c-.09,.49-.16,.9-.2,1.25s-.07,.64-.07,.9c0,.64,.16,1.12,.47,1.44,.31,.32,.79,.47,1.44,.47,.37,0,.77-.08,1.2-.22,.44-.15,.89-.37,1.37-.67v2.69c-.65,.33-1.27,.58-1.84,.74-.58,.16-1.12,.24-1.63,.24-1.23,0-2.23-.38-3-1.14-.77-.76-1.15-1.76-1.15-3,0-.33,.03-.7,.08-1.11s.16-.96,.3-1.64l1.36-6.61h-2.59l.48-2.17h2.62l.75-3.22h3.02l-.71,3.22h3.02l-.5,2.17h-3.04l-1.39,6.67Z"/><path class="g" d="M362.22,382.05h-2.89l.28-1.91c-.6,.75-1.23,1.31-1.89,1.67-.66,.36-1.38,.54-2.16,.54-1.48,0-2.72-.58-3.71-1.74-.99-1.16-1.49-2.63-1.49-4.4,0-1.04,.17-2.06,.51-3.05,.34-1,.82-1.92,1.45-2.76,1-1.31,2.15-2.25,3.47-2.82s3.02-.86,5.11-.86h3.57l-2.26,15.34Zm-2.17-4.73l1.16-8.08c-.09-.01-.19-.02-.3-.03-.11,0-.27,0-.48,0-2.04,0-3.7,.62-4.98,1.88s-1.93,2.86-1.93,4.81c0,1.21,.27,2.18,.82,2.91,.55,.74,1.26,1.1,2.13,1.1,.67,0,1.31-.22,1.91-.65s1.15-1.08,1.66-1.94Z"/><path class="g" d="M370.01,358.82h3.02l-3.5,23.23h-3.02l3.5-23.23Z"/><path class="g" d="M386.58,377.56l-.48,3.09c-.89,.59-1.76,1.02-2.61,1.3-.86,.28-1.72,.42-2.58,.42-1.93,0-3.51-.67-4.74-2.03-1.23-1.35-1.85-3.09-1.85-5.21,0-2.55,.7-4.65,2.1-6.31,1.4-1.66,3.17-2.49,5.3-2.49,1.77,0,3.13,.52,4.07,1.55,.94,1.03,1.41,2.52,1.41,4.46v1.74h-9.7l-.07,1.01v.38c0,1.25,.36,2.29,1.08,3.13,.72,.83,1.6,1.25,2.66,1.25,.83,0,1.67-.18,2.53-.55,.86-.37,1.82-.95,2.88-1.76Zm-8.6-5.61h6.46v-.42c0-.86-.24-1.55-.71-2.06s-1.12-.76-1.94-.76c-.96,0-1.75,.26-2.37,.79-.61,.53-1.09,1.34-1.44,2.45Z"/><path class="g" d="M389.67,382.05l2.32-15.34h2.96l-.38,2.46c.95-.95,1.88-1.66,2.77-2.12s1.79-.7,2.67-.7c1.15,0,2.04,.37,2.68,1.1,.64,.74,.96,1.77,.96,3.11,0,.33-.02,.69-.05,1.09-.03,.39-.08,.81-.15,1.25l-1.36,9.15h-2.96l1.39-9.89c.04-.32,.08-.61,.1-.88s.03-.48,.03-.65c0-.6-.15-1.05-.45-1.35-.3-.3-.74-.46-1.33-.46-.71,0-1.45,.26-2.22,.78s-1.57,1.29-2.39,2.32l-1.63,10.13h-2.97Z"/><path class="g" d="M411.2,375.56c-.09,.49-.16,.9-.2,1.25-.04,.34-.07,.64-.07,.9,0,.64,.16,1.12,.47,1.44,.31,.32,.79,.47,1.44,.47,.37,0,.77-.08,1.2-.22,.44-.15,.89-.37,1.37-.67v2.69c-.65,.33-1.27,.58-1.84,.74-.58,.16-1.12,.24-1.63,.24-1.23,0-2.23-.38-3-1.14-.77-.76-1.15-1.76-1.15-3,0-.33,.03-.7,.08-1.11s.16-.96,.3-1.64l1.36-6.61h-2.59l.48-2.17h2.62l.75-3.22h3.02l-.71,3.22h3.02l-.5,2.17h-3.04l-1.39,6.67Z"/><path class="g" d="M418.08,375.52c0-2.56,.72-4.72,2.17-6.49,1.44-1.77,3.17-2.66,5.17-2.66,1.88,0,3.37,.61,4.46,1.83,1.09,1.22,1.63,2.9,1.63,5.04,0,2.62-.72,4.79-2.16,6.52-1.44,1.72-3.25,2.58-5.43,2.58-1.82,0-3.24-.61-4.28-1.82-1.04-1.21-1.56-2.88-1.56-5Zm7.44-6.71c-1.16,0-2.17,.68-3.03,2.04-.86,1.36-1.29,2.99-1.29,4.9,0,1.31,.26,2.33,.77,3.09,.51,.75,1.21,1.13,2.08,1.13,1.26,0,2.3-.65,3.12-1.96s1.23-3,1.23-5.08c0-1.31-.25-2.32-.75-3.04-.5-.72-1.21-1.08-2.13-1.08Z"/><path class="g" d="M437.05,364.17c.51-.16,.93-.4,1.25-.74,.33-.34,.57-.77,.72-1.3-.48-.17-.84-.4-1.1-.71-.26-.3-.39-.65-.39-1.04,0-.53,.18-.99,.55-1.36s.8-.56,1.31-.56c.58,0,1.04,.21,1.4,.64,.36,.43,.54,.98,.54,1.67,0,1.07-.39,2.02-1.17,2.83-.78,.81-1.82,1.34-3.11,1.59v-1.01Zm6.13,0c.51-.16,.93-.4,1.26-.74,.33-.34,.58-.77,.75-1.3-.49-.17-.87-.4-1.14-.71-.27-.3-.41-.65-.41-1.04,0-.53,.18-.99,.55-1.36s.81-.56,1.33-.56c.58,0,1.04,.21,1.4,.64,.36,.43,.54,.98,.54,1.67,0,1.07-.39,2.02-1.17,2.83-.78,.81-1.82,1.34-3.11,1.59v-1.01Z"/></g><g><path class="g" d="M41.95,308.18l-.43,3.74c-.95-.46-1.92-.8-2.91-1.03-1-.23-2.04-.34-3.13-.34-1.85,0-3.29,.34-4.33,1.03-1.04,.69-1.56,1.63-1.56,2.84,0,.95,.35,1.8,1.05,2.58,.7,.77,2.21,1.8,4.53,3.07,3.02,1.66,5.11,3.17,6.25,4.53,1.15,1.36,1.72,2.92,1.72,4.66,0,2.59-.95,4.72-2.85,6.38-1.9,1.66-4.34,2.49-7.32,2.49-1.45,0-2.83-.12-4.15-.34-1.32-.23-2.55-.57-3.7-1.01l.43-4.1c1.26,.66,2.48,1.15,3.65,1.46,1.17,.32,2.32,.47,3.44,.47,1.79,0,3.23-.4,4.32-1.2,1.09-.8,1.63-1.86,1.63-3.18,0-2.05-2.14-4.29-6.42-6.72-.72-.4-1.26-.72-1.63-.95-1.63-.95-2.92-2.1-3.85-3.46-.93-1.36-1.4-2.76-1.4-4.19,0-2.38,.91-4.26,2.72-5.66,1.81-1.4,4.28-2.09,7.4-2.09,1.16,0,2.28,.09,3.37,.26,1.09,.17,2.13,.43,3.14,.77Z"/><path class="g" d="M68.71,326.17v1.68h-15.64c.16,2.36,.91,4.2,2.27,5.51s3.18,1.97,5.49,1.97c1.02,0,2.03-.13,3.03-.4,1-.26,2.03-.68,3.09-1.24v3.52c-.97,.42-2.04,.73-3.19,.93-1.15,.21-2.42,.31-3.81,.31-3.35,0-5.99-1.06-7.93-3.17-1.93-2.11-2.9-4.99-2.9-8.63,0-3.41,.95-6.16,2.85-8.24,1.9-2.08,4.38-3.13,7.44-3.13,2.89,0,5.17,.97,6.82,2.9s2.48,4.59,2.48,7.97Zm-3.85-1.05c-.14-2.21-.71-3.9-1.7-5.08s-2.31-1.77-3.97-1.77-3.01,.61-4.08,1.84-1.72,2.9-1.93,5.02h11.69Z"/><path class="g" d="M86.84,315.57l-.13,3.91c-.33-.1-.63-.17-.9-.2-.27-.04-.54-.05-.82-.05-1.88,0-3.32,.66-4.34,1.98-1.02,1.32-1.53,3.19-1.53,5.63v11.09h-4.08v-22.09h3.7v4.53c.62-1.6,1.47-2.83,2.57-3.67,1.1-.84,2.37-1.27,3.81-1.27,.23,0,.49,.01,.78,.04,.29,.03,.6,.06,.93,.11Z"/><path class="g" d="M89.52,315.83h4.38l5.78,18.43,6.02-18.43h4.02l-7.84,22.09h-4.75l-7.61-22.09Z"/><path class="g" d="M114.95,305.71h4.08v4.08h-4.08v-4.08Zm0,10.12h4.08v22.09h-4.08v-22.09Z"/><path class="g" d="M143.16,316.58l-.32,3.52c-.67-.37-1.41-.66-2.22-.86-.81-.2-1.65-.3-2.52-.3-2.28,0-4.12,.73-5.53,2.18-1.41,1.45-2.12,3.36-2.12,5.7s.68,4.34,2.05,5.79c1.37,1.45,3.19,2.18,5.47,2.18,.83,0,1.67-.1,2.5-.31,.84-.21,1.69-.52,2.57-.93l.21,3.61c-.92,.34-1.87,.6-2.86,.76s-2.01,.25-3.05,.25c-3.38,0-6.09-1.03-8.14-3.08-2.05-2.05-3.07-4.78-3.07-8.17s1.06-6.1,3.17-8.16c2.11-2.06,4.9-3.09,8.37-3.09,1.02,0,1.98,.08,2.9,.23,.92,.15,1.78,.38,2.6,.7Z"/><path class="g" d="M149.66,305.71h4.08v4.08h-4.08v-4.08Zm0,10.12h4.08v22.09h-4.08v-22.09Z"/><path class="g" d="M171.74,315.29c3.39,0,6.07,1.04,8.02,3.1,1.96,2.07,2.93,4.9,2.93,8.48s-.98,6.37-2.95,8.45c-1.97,2.08-4.64,3.13-8,3.13s-6.03-1.04-7.98-3.12c-1.96-2.08-2.93-4.9-2.93-8.46s.98-6.41,2.93-8.48c1.96-2.07,4.62-3.1,7.98-3.1Zm.04,3.14c-1.96,0-3.55,.77-4.77,2.31-1.22,1.54-1.83,3.57-1.83,6.09s.61,4.51,1.83,6.05c1.22,1.54,2.81,2.31,4.77,2.31s3.59-.76,4.79-2.28c1.2-1.52,1.8-3.54,1.8-6.08s-.6-4.59-1.8-6.11-2.8-2.29-4.79-2.29Z"/><path class="g" d="M202.22,316.41l-.17,3.33c-.89-.42-1.8-.73-2.74-.95-.94-.21-1.89-.32-2.85-.32-1.12,0-2.01,.23-2.69,.69-.67,.46-1.01,1.07-1.01,1.83,0,.67,.28,1.28,.83,1.8,.55,.53,1.7,1.2,3.45,2.02,2.32,1.07,3.92,2.12,4.79,3.14,.87,1.02,1.31,2.24,1.31,3.67,0,2.01-.81,3.6-2.42,4.78s-3.79,1.77-6.54,1.77c-1,0-1.99-.09-2.98-.28-.98-.19-1.93-.46-2.85-.82l.13-3.44c1,.5,2,.88,3,1.13,1,.25,1.95,.38,2.87,.38,1.35,0,2.42-.29,3.21-.87s1.19-1.36,1.19-2.35c0-.73-.24-1.36-.71-1.89-.47-.53-1.58-1.22-3.31-2.06-2.32-1.13-3.91-2.18-4.77-3.16-.86-.97-1.29-2.12-1.29-3.44,0-1.73,.73-3.13,2.19-4.2,1.46-1.07,3.41-1.6,5.84-1.6,.89,0,1.79,.07,2.72,.2,.92,.14,1.85,.35,2.78,.63Z"/><path class="g" d="M221.06,307.39h21.4v3.57h-8.55v26.96h-4.3v-26.96h-8.55v-3.57Z"/><path class="g" d="M260.82,326.17v1.68h-15.64c.16,2.36,.91,4.2,2.27,5.51s3.18,1.97,5.49,1.97c1.02,0,2.03-.13,3.03-.4,1-.26,2.03-.68,3.09-1.24v3.52c-.97,.42-2.04,.73-3.19,.93-1.15,.21-2.42,.31-3.81,.31-3.35,0-5.99-1.06-7.93-3.17-1.93-2.11-2.9-4.99-2.9-8.63,0-3.41,.95-6.16,2.85-8.24,1.9-2.08,4.38-3.13,7.44-3.13,2.89,0,5.17,.97,6.82,2.9s2.48,4.59,2.48,7.97Zm-3.85-1.05c-.14-2.21-.71-3.9-1.7-5.08s-2.31-1.77-3.97-1.77-3.01,.61-4.08,1.84-1.72,2.9-1.93,5.02h11.69Z"/><path class="g" d="M284.71,320.15c.82-1.58,1.86-2.77,3.13-3.59,1.27-.82,2.72-1.22,4.36-1.22,2.31,0,4.07,.79,5.28,2.36,1.21,1.58,1.82,3.87,1.82,6.88v13.34h-4.08v-12.42c0-2.22-.35-3.87-1.05-4.94-.7-1.07-1.78-1.61-3.23-1.61-1.78,0-3.17,.68-4.18,2.04-1,1.36-1.51,3.25-1.51,5.67v11.26h-4.08v-12.42c0-2.31-.35-3.97-1.05-5.01s-1.83-1.55-3.39-1.55c-1.64,0-2.97,.7-3.98,2.08-1.01,1.39-1.51,3.27-1.51,5.63v11.26h-4.08v-22.09h3.78v4.08c.79-1.49,1.8-2.62,3.04-3.41,1.24-.78,2.66-1.17,4.24-1.17s2.87,.41,3.97,1.24c1.11,.82,1.95,2.02,2.52,3.58Z"/><path class="g" d="M311.75,334.35v12.76h-4.08v-31.28h3.7v4.28c.86-1.56,1.96-2.75,3.29-3.58,1.33-.82,2.84-1.24,4.51-1.24,2.71,0,4.9,1.02,6.57,3.06s2.51,4.73,2.51,8.07c0,3.61-.85,6.49-2.54,8.63-1.69,2.14-3.94,3.21-6.75,3.21-1.56,0-2.95-.33-4.17-.99-1.22-.66-2.23-1.63-3.05-2.92Zm12.2-7.65c0-2.52-.53-4.5-1.58-5.94-1.05-1.44-2.5-2.16-4.33-2.16s-3.41,.74-4.57,2.22c-1.15,1.48-1.73,3.46-1.73,5.92s.55,4.59,1.67,6.08c1.11,1.49,2.6,2.23,4.46,2.23s3.34-.75,4.44-2.25c1.1-1.5,1.64-3.53,1.64-6.11Z"/><path class="g" d="M344.76,315.29c3.39,0,6.07,1.04,8.02,3.1,1.96,2.07,2.93,4.9,2.93,8.48s-.99,6.37-2.95,8.45c-1.97,2.08-4.64,3.13-8,3.13s-6.03-1.04-7.98-3.12c-1.96-2.08-2.93-4.9-2.93-8.46s.98-6.41,2.93-8.48c1.96-2.07,4.62-3.1,7.98-3.1Zm.04,3.14c-1.96,0-3.55,.77-4.77,2.31-1.22,1.54-1.83,3.57-1.83,6.09s.61,4.51,1.83,6.05c1.22,1.54,2.81,2.31,4.77,2.31s3.59-.76,4.79-2.28c1.2-1.52,1.8-3.54,1.8-6.08s-.6-4.59-1.8-6.11-2.8-2.29-4.79-2.29Z"/><path class="g" d="M374.77,315.57l-.13,3.91c-.33-.1-.63-.17-.9-.2-.27-.04-.54-.05-.82-.05-1.88,0-3.32,.66-4.34,1.98-1.02,1.32-1.53,3.19-1.53,5.63v11.09h-4.08v-22.09h3.7v4.53c.62-1.6,1.47-2.83,2.57-3.67,1.1-.84,2.37-1.27,3.81-1.27,.23,0,.49,.01,.78,.04,.29,.03,.6,.06,.93,.11Z"/><path class="g" d="M396.85,324.49v13.43h-3.77v-3.7c-.85,1.35-1.9,2.35-3.15,3.01-1.25,.66-2.7,.99-4.35,.99-2.09,0-3.78-.6-5.06-1.8-1.29-1.2-1.93-2.77-1.93-4.71,0-2.41,.97-4.25,2.92-5.52,1.95-1.27,4.75-1.91,8.42-1.91h2.84v-.43c0-1.72-.48-3.06-1.43-4.02-.96-.96-2.28-1.44-3.96-1.44-.95,0-1.93,.15-2.95,.46-1.02,.31-2.07,.77-3.14,1.39l-.04-3.35c1.1-.53,2.26-.93,3.48-1.19,1.22-.26,2.52-.4,3.91-.4,2.74,0,4.79,.77,6.17,2.3,1.38,1.53,2.06,3.83,2.06,6.9Zm-6.65,2.51c-2.43,0-4.3,.39-5.59,1.16-1.29,.77-1.94,1.88-1.94,3.33,0,1.1,.37,2.01,1.1,2.72,.73,.71,1.69,1.06,2.86,1.06,1.85,0,3.34-.6,4.46-1.8s1.68-2.81,1.68-4.83v-1.63h-2.57Z"/><path class="g" d="M405.12,305.05h4.08v32.87h-4.08v-32.87Z"/><path class="g" d="M435.88,326.17v1.68h-15.64c.16,2.36,.91,4.2,2.27,5.51s3.18,1.97,5.49,1.97c1.02,0,2.03-.13,3.03-.4,1-.26,2.03-.68,3.09-1.24v3.52c-.97,.42-2.04,.73-3.19,.93-1.15,.21-2.42,.31-3.81,.31-3.35,0-5.99-1.06-7.93-3.17-1.93-2.11-2.9-4.99-2.9-8.63,0-3.41,.95-6.16,2.85-8.24,1.9-2.08,4.38-3.13,7.44-3.13,2.89,0,5.17,.97,6.82,2.9s2.48,4.59,2.48,7.97Zm-3.85-1.05c-.14-2.21-.71-3.9-1.7-5.08s-2.31-1.77-3.97-1.77-3.01,.61-4.08,1.84-1.72,2.9-1.93,5.02h11.69Z"/><path class="g" d="M454.48,316.41l-.17,3.33c-.89-.42-1.8-.73-2.74-.95-.94-.21-1.89-.32-2.85-.32-1.12,0-2.01,.23-2.69,.69-.67,.46-1.01,1.07-1.01,1.83,0,.67,.28,1.28,.83,1.8,.55,.53,1.7,1.2,3.45,2.02,2.32,1.07,3.92,2.12,4.79,3.14,.87,1.02,1.31,2.24,1.31,3.67,0,2.01-.81,3.6-2.42,4.78s-3.79,1.77-6.54,1.77c-1,0-2-.09-2.98-.28-.98-.19-1.93-.46-2.85-.82l.13-3.44c1,.5,2,.88,3,1.13,1,.25,1.95,.38,2.87,.38,1.35,0,2.42-.29,3.21-.87s1.19-1.36,1.19-2.35c0-.73-.24-1.36-.71-1.89-.47-.53-1.58-1.22-3.31-2.06-2.32-1.13-3.91-2.18-4.77-3.16-.86-.97-1.29-2.12-1.29-3.44,0-1.73,.73-3.13,2.19-4.2,1.46-1.07,3.41-1.6,5.84-1.6,.89,0,1.79,.07,2.72,.2,.92,.14,1.85,.35,2.78,.63Z"/></g></g></g></g></svg>