<?xml version="1.0" encoding="UTF-8"?><svg xmlns="http://www.w3.org/2000/svg" viewBox="0 0 108.64 94.06"><defs><style>.d{fill:#070056;}</style></defs><g id="a"/><g id="b"><g id="c"><path class="d" d="M.73,63.34c.63-1.74,1.27-3.47,1.88-5.21,1.47-4.23,2.93-8.46,4.38-12.71,.15-.44,.33-.64,.85-.62h3.48c2,6.19,4.1,12.38,6.18,18.67h-3.48c-.13,0-.31-.28-.36-.46-.38-1.24-.71-2.48-1.09-3.71-.05-.18-.29-.42-.45-.42H5.61c-.46,1.55-.91,3.08-1.37,4.62H.73v-.16Zm8.52-15.22h-.15c-.87,2.7-1.74,5.4-2.63,8.11h5.17c-.78-2.75-1.58-5.43-2.39-8.11Z"/><path class="d" d="M28.48,40.92s-.09-.04-.09-.09c0-.02,0-.03,.02-.05l3.67-6-3.19-1.83c-.41-.28-.85-.52-1.3-.73-1-.37-1.23-1.07-1.22-2.1v-12.6c-.04-.36,.14-.7,.45-.88,.7-.46,1.36-1,2-1.46s.75-.68,.28-1.44c-.76-1.12-1.02-2.51-.74-3.83,.61-2.69,3.16-4.47,5.89-4.13,2.88,.27,4.99,2.82,4.72,5.69-.01,.15-.03,.3-.06,.45-.13,.73-.44,1.42-.89,2-.25,.22-.28,.59-.06,.85,.06,.07,.13,.12,.2,.15,.82,.64,1.65,1.27,2.44,1.94,.18,.18,.29,.43,.29,.69v2.41h6.81V11.49c-.03-.41,.17-.79,.52-1,.84-.61,1.66-1.25,2.54-1.91-1.15-1.5-1.82-3.09-1.18-5,.23-.69,.61-1.33,1.12-1.85,2.22-2.27,5.86-2.32,8.13-.1,.03,.03,.07,.07,.1,.1,1.79,1.94,1.74,4.44-.13,6.74,.92,.7,1.85,1.37,2.73,2.12,.22,.38,.33,.81,.32,1.24v8c0,.06,0,.11,0,.17h6.91v-2.2c-.04-.36,.14-.71,.45-.9,1-.69,1.88-1.42,2.85-2.16-.14-.23-.25-.45-.38-.65-1.69-2.35-1.16-5.62,1.19-7.31,.54-.39,1.16-.68,1.81-.84,2.89-.85,5.93,.8,6.78,3.7,.16,.53,.23,1.08,.22,1.63-.03,.98-.35,1.93-.92,2.73q-.53,.77,.25,1.35c.61,.47,1.25,.91,1.84,1.4,.19,.17,.3,.41,.32,.66v13.75c-.02,.28-.16,.53-.39,.68-1.5,.88-3,1.72-4.54,2.57-.22,.12-.42,.25-.66,.4l3.32,5.49c.36,.58,.22,.82-.44,.82m-4.11-2l.11-.35c-.25-.24-.48-.49-.74-.71-6.84-5.64-13.68-11.28-20.52-16.92-.39-.33-.61-.28-1,0-2,1.67-4,3.32-6,5l-15.27,12.49c-.16,.16-.31,.32-.45,.5,14.8-.18,29.38-.11,43.95-.17l-.08,.16Zm5.47-8.18v-12.67c-.01-.16-.09-.3-.2-.41-.53-.46-1.09-.88-1.68-1.27-.77-.34-1.19-1.18-1-2,.08-.43,0-1,.22-1.27,.92-1.09,1.07-2.64,.37-3.89-.68-1.38-2.15-2.19-3.68-2-1.94,.02-3.5,1.62-3.48,3.56,0,.66,.2,1.3,.55,1.85,.42,.63,.63,1.37,.59,2.13,.04,.36-.13,.71-.43,.9-.65,.46-1.25,1-1.89,1.44-.29,.18-.45,.5-.43,.84v5.1c-.02,.2,.02,.4,.11,.58,1.36,2.27,2.75,4.53,4.14,6.78,.1,.15,.27,.25,.45,.27,2.18-.09,4.28-.1,6.44-.1l-.08,.16Zm-53.44-.32h5.84c.36,.03,.7-.16,.85-.49,.62-1.06,1.25-2.1,1.88-3.15,.88-1.18,1.61-2.47,2.16-3.83,0-1.27,.12-2.78,.12-4.46,.01-.07,.01-.13,0-.2-.07-.31-.21-.61-.39-.87-.75-.72-1.56-1.38-2.33-2.09-.64-.65-.69-1.69-.11-2.4,1.06-1.14,1.19-2.86,.31-4.14-1.22-1.71-3.59-2.11-5.3-.89h0c-1.53,1.04-1.92,3.13-.87,4.66,.1,.14,.21,.28,.32,.4,.49,.82,.37,1.86-.29,2.55-.6,.48-1.23,.93-1.81,1.44-.2,.16-.33,.39-.37,.64-.02,4.28-.01,8.52-.01,12.83Zm31.89-10.92v-7.79c-.04-.28-.19-.53-.41-.7-.64-.53-1.33-1-2-1.51-.73-.7-.82-1.83-.21-2.64,1.21-1.2,1.22-3.15,.02-4.36-.06-.06-.13-.13-.2-.18-.95-.85-2.26-1.18-3.5-.88-1.29,.19-2.36,1.1-2.75,2.35-.35,1.09-.04,2.28,.78,3.07,.74,.82,.67,2.09-.15,2.82l-.03,.03c-.41,.37-.86,.7-1.32,1-.88,.43-1.35,1.4-1.15,2.35,.04,.57,.04,1.13,0,1.7v4.77l10.92-.03Z"/><path class="d" d="M61.37,49.43v14h-3.09v-18.57h4.14c2.18,4.67,4.36,9.38,6.54,14.14h.11v-14.15h3.13v18.62h-4.05c-.13,0-.29-.3-.38-.49-1.83-3.96-3.65-7.92-5.48-11.89-.25-.57-.52-1.13-.78-1.7l-.14,.04Z"/><path class="d" d="M101.57,54.27c.89,.16,1.63,.75,2,1.57,.21,.45,.42,.9,.6,1.36l2.38,6.25h-4c-.6-1.77-1.22-3.56-1.84-5.36l-.06-.19c-.74-2.12-1.51-2.58-3.86-2.25v7.77h-3.75v-18.61c2.94,.08,5.87-.24,8.76,.41,2.11,.26,3.67,2.08,3.62,4.2,.27,2.17-1.17,4.19-3.31,4.65l-.54,.2Zm-4.7-1.3h1.72c.38-.02,.76-.08,1.14-.16,1.13-.16,1.96-1.15,1.93-2.29,.02-.33,.02-.67,0-1,0-.88-.62-1.64-1.48-1.81-1.07-.2-2.17-.26-3.31-.39v5.65Z"/><path class="d" d="M53.88,47.89c-1.31-.34-2.65-.58-4-.72-3.32-.14-5.34,1.51-6,4.76-.43,1.87-.31,3.83,.32,5.64,1.19,3.32,4.17,3.88,6.65,3.2,.2-.08,.35-.26,.4-.48v-4.68h-2.83v-2.62h6.22c0,.13,0,.27,0,.4v8.79c0,.35-.05,.58-.43,.71-2.87,1.09-6.02,1.18-8.94,.26-2.58-.85-4.49-3.03-5-5.7-.54-2.24-.51-4.57,.11-6.79,.88-3.3,3.69-5.72,7.08-6.12,2.03-.28,4.09-.12,6.05,.46,.42,.13,.58,.31,.52,.76-.1,.76-.12,1.53-.15,2.13Z"/><path class="d" d="M84.73,44.81c2.06,6.22,4.1,12.4,6.18,18.67h-3.48c-.13,0-.31-.28-.36-.46-.37-1.23-.7-2.48-1.08-3.71-.06-.18-.3-.42-.46-.42h-6.5l-1.37,4.6h-3.48c.69-2,1.36-4,2-5.93,1.4-4,2.81-8.07,4.19-12.11,.06-.4,.43-.67,.83-.61h.02c1.18,0,2.31-.03,3.51-.03Zm.37,11.43c-.83-2.76-1.63-5.45-2.44-8.14h-.14l-2.65,8.14h5.23Z"/><path class="d" d="M28.84,45.01c-.06,1-.11,1.91-.16,2.72-1.24-.21-2.41-.43-3.59-.58-.41-.03-.82,.02-1.21,.15-1.09,.2-1.8,1.24-1.6,2.33,.08,.46,.33,.87,.68,1.17,.53,.45,1.1,.87,1.69,1.24,1.09,.77,2.25,1.45,3.26,2.31,1.69,1.28,2.35,3.51,1.64,5.51-.63,2-2.37,3.46-4.45,3.73-1.91,.33-3.87,.15-5.68-.54-.31-.06-.51-.35-.46-.66v-.04c.11-.78,.17-1.56,.22-2.17,1.32,.34,2.65,.61,4,.8,1.21,.24,2.42-.42,2.89-1.56,.34-1.15-.14-2.38-1.17-3-.65-.52-1.38-.94-2.07-1.41s-1.6-1-2.34-1.64c-2.12-1.71-2.45-4.8-.74-6.92,.63-.78,1.48-1.35,2.44-1.63,2.18-.64,4.51-.58,6.65,.19Z"/><path class="d" d="M33.09,63.44v-18.59h3.55v18.59h-3.55Z"/><path class="d" d="M30.01,39.62l.75-1.51c.17,.62-.15,1.27-.75,1.51Z"/><path class="d" d="M10.24,69.75l-.1,.84c-.21-.1-.43-.18-.66-.23-.23-.05-.47-.08-.71-.08-.35-.02-.7,.06-1,.24-.22,.14-.36,.38-.35,.64,0,.22,.09,.42,.24,.58,.3,.28,.63,.52,1,.7,.52,.25,1,.59,1.41,1,.25,.29,.39,.67,.39,1.06,.02,.55-.22,1.08-.64,1.44-.46,.39-1.05,.59-1.66,.57-.32,0-.63-.03-.94-.08-.29-.05-.57-.13-.84-.23l.1-.93c.26,.14,.54,.25,.83,.33,.25,.07,.52,.11,.78,.11,.35,.02,.71-.07,1-.27,.24-.17,.38-.44,.37-.73,0-.46-.48-1-1.45-1.52l-.37-.21c-.35-.2-.64-.47-.87-.79-.21-.27-.32-.61-.32-.95-.02-.5,.21-.98,.62-1.28,.49-.34,1.08-.51,1.67-.48,.26,0,.52,.02,.77,.06,.25,.05,.49,.12,.73,.21Z"/><path class="d" d="M16.31,73.82v.38h-3.55c0,.47,.19,.92,.52,1.25,.34,.31,.78,.47,1.24,.45,.23,0,.46-.03,.69-.09,.24-.07,.48-.16,.7-.28v.8c-.23,.09-.47,.16-.72,.21-.29,.05-.58,.07-.87,.07-.68,.03-1.33-.23-1.8-.72-.47-.56-.7-1.27-.65-2-.04-.68,.19-1.35,.64-1.87,.43-.47,1.05-.73,1.69-.71,.59-.03,1.16,.21,1.55,.66,.41,.53,.61,1.19,.56,1.85Zm-.87-.23c0-.42-.14-.82-.39-1.16-.22-.27-.55-.41-.9-.4-.36,0-.7,.15-.93,.42-.26,.33-.41,.72-.43,1.14h2.65Z"/><path class="d" d="M20.42,71.42v.89l-.21-.05h-.18c-.39-.03-.76,.14-1,.45-.26,.38-.38,.83-.35,1.28v2.51h-.93v-5h.84v1c.12-.32,.32-.61,.58-.83,.25-.2,.55-.3,.87-.29h.18l.2,.04Z"/><path class="d" d="M21.03,71.48h1l1.31,4.18,1.36-4.18h.94l-1.78,5h-1.08l-1.75-5Z"/><path class="d" d="M26.79,69.19h.93v.92h-.93v-.92Zm0,2.29h.93v5h-.93v-5Z"/><path class="d" d="M33.19,71.62l-.08,.8c-.16-.09-.33-.15-.5-.19-.19-.05-.38-.07-.57-.07-.47-.02-.93,.16-1.26,.49-.33,.35-.5,.82-.48,1.3-.02,.48,.15,.95,.47,1.31,.32,.33,.78,.51,1.24,.49,.19,0,.38-.02,.57-.07,.2-.05,.39-.12,.58-.21v.82c-.21,.08-.43,.13-.65,.17-.23,.04-.46,.06-.69,.06-1.33,.08-2.47-.93-2.55-2.26,0-.1,0-.2,0-.3-.03-.69,.23-1.36,.72-1.85,.51-.48,1.2-.73,1.9-.7,.22,0,.44,.02,.66,.05,.22,.03,.43,.09,.64,.16Z"/><path class="d" d="M34.64,69.19h1v.92h-1v-.92Zm0,2.29h1v5h-1v-5Z"/><path class="d" d="M39.64,71.36c.68-.04,1.34,.22,1.82,.7,.46,.53,.7,1.22,.66,1.92,.04,.7-.2,1.39-.67,1.92-.47,.49-1.13,.75-1.81,.72-.68,.04-1.34-.22-1.81-.71-.89-1.12-.89-2.72,0-3.84,.47-.48,1.13-.74,1.81-.71Zm0,.71c-.4,.02-.77,.22-1,.55-.56,.84-.56,1.92,0,2.76,.25,.34,.66,.53,1.08,.52,.43,.01,.83-.18,1.09-.52,.29-.4,.43-.88,.4-1.37,.03-.5-.11-.99-.4-1.39-.27-.37-.71-.58-1.17-.55h0Z"/><path class="d" d="M46.58,71.62v.76c-.2-.1-.41-.17-.62-.22-.21-.05-.42-.07-.64-.07-.22-.01-.43,.04-.61,.16-.15,.08-.23,.24-.23,.41,0,.16,.07,.3,.18,.41,.24,.19,.51,.34,.79,.46,.4,.16,.77,.4,1.08,.71,.2,.23,.31,.53,.3,.83,.01,.43-.19,.84-.55,1.09-.44,.29-.96,.42-1.48,.4-.23,0-.46-.02-.68-.07-.22-.04-.43-.1-.64-.18v-.78c.22,.11,.44,.19,.68,.25,.21,.06,.43,.09,.65,.09,.26,.01,.51-.06,.73-.2,.17-.12,.28-.32,.27-.53,0-.16-.06-.31-.16-.43-.22-.2-.48-.35-.75-.47-.4-.17-.77-.41-1.09-.71-.19-.22-.29-.49-.29-.78-.02-.4,.17-.78,.5-1,.39-.27,.85-.4,1.32-.37,.21-.01,.41-.01,.62,0,.21,.07,.42,.15,.62,.24Z"/><path class="d" d="M50.85,69.62h4.85v.81h-1.94v6.11h-1v-6.11h-1.94l.03-.81Z"/><path class="d" d="M59.87,73.82v.38h-3.55c0,.47,.19,.91,.51,1.25,.34,.31,.79,.47,1.25,.45,.23,0,.46-.03,.69-.09,.24-.07,.48-.16,.7-.28v.8c-.24,.09-.48,.16-.73,.21-.28,.05-.57,.07-.86,.07-.68,.03-1.33-.23-1.8-.72-.47-.55-.71-1.27-.66-2-.03-.68,.2-1.35,.65-1.87,.43-.47,1.05-.73,1.69-.71,.59-.03,1.16,.21,1.54,.66,.42,.52,.62,1.18,.57,1.85Zm-.88-.23c0-.42-.14-.82-.38-1.16-.22-.27-.55-.41-.9-.4-.36,0-.7,.15-.93,.42-.26,.32-.42,.72-.44,1.14h2.65Z"/><path class="d" d="M65.28,72.46c.16-.33,.4-.61,.71-.81,.3-.19,.65-.29,1-.28,.46-.02,.91,.17,1.2,.53,.3,.46,.44,1.01,.41,1.56v3h-.96v-2.82c.02-.39-.06-.77-.23-1.12-.17-.24-.45-.38-.74-.36-.37-.02-.73,.16-.94,.46-.25,.38-.37,.83-.35,1.29v2.55h-.92v-2.82c.03-.39-.05-.79-.24-1.13-.17-.25-.47-.38-.77-.35-.36,0-.7,.17-.9,.47-.25,.38-.37,.83-.34,1.28v2.55h-.93v-5h.86v.93c.16-.32,.4-.59,.69-.78,.3-.18,.65-.27,1-.26,.32-.01,.64,.09,.9,.28,.26,.22,.45,.51,.55,.83Z"/><path class="d" d="M71.41,75.68v2.94h-.92v-7.09h.84v1c.17-.33,.43-.61,.74-.81,.83-.49,1.89-.31,2.52,.41,.4,.52,.6,1.17,.57,1.83,.04,.71-.16,1.42-.58,2-.36,.48-.93,.75-1.53,.73-.67,.01-1.29-.33-1.64-.89v-.12Zm2.77-1.73c.03-.48-.1-.95-.36-1.35-.23-.33-.6-.51-1-.49-.39,0-.76,.19-1,.5-.28,.39-.43,.87-.4,1.35-.03,.49,.11,.97,.38,1.37,.42,.55,1.21,.66,1.77,.23,.09-.07,.17-.15,.23-.23,.27-.41,.4-.89,.38-1.38h0Z"/><path class="d" d="M78.9,71.36c.68-.04,1.34,.22,1.82,.7,.46,.53,.7,1.22,.66,1.92,.04,.7-.2,1.39-.67,1.92-.47,.48-1.13,.74-1.81,.71-.68,.04-1.34-.22-1.81-.71-.88-1.13-.88-2.71,0-3.84,.48-.48,1.13-.74,1.81-.7Zm0,.71c-.42,0-.82,.18-1.08,.52-.56,.84-.56,1.92,0,2.76,.25,.34,.66,.53,1.08,.52,.43,.01,.83-.18,1.09-.52,.29-.4,.43-.88,.41-1.37,.03-.5-.12-.99-.41-1.39-.26-.34-.66-.53-1.08-.52h-.01Z"/><path class="d" d="M85.7,71.42v.89l-.2-.05h-.18c-.39-.03-.76,.14-1,.45-.25,.38-.37,.83-.34,1.28v2.51h-.93v-5h.84v1c.11-.33,.31-.61,.58-.83,.24-.19,.55-.3,.86-.29h.18l.19,.04Z"/><path class="d" d="M90.71,73.44v3.05h-.85v-.87c-.18,.29-.43,.52-.72,.68-.31,.16-.65,.24-1,.23-.42,.02-.83-.13-1.14-.41-.59-.6-.58-1.56,.01-2.15,.06-.06,.13-.12,.21-.17,.58-.32,1.25-.47,1.91-.43h.65v-.1c.06-.63-.4-1.18-1.03-1.24-.07,0-.13,0-.2,0-.23,0-.45,.04-.67,.11-.25,.08-.49,.18-.71,.31v-.76c.25-.12,.52-.21,.79-.27,.29-.06,.58-.09,.88-.09,.52-.04,1.03,.15,1.4,.52,.35,.45,.52,1.02,.47,1.59Zm-1.51,.57c-.44-.03-.87,.07-1.26,.27-.28,.14-.45,.44-.44,.75,0,.23,.08,.46,.25,.62,.17,.17,.41,.25,.65,.24,.38,.01,.74-.14,1-.41,.26-.3,.4-.7,.38-1.1v-.37h-.58Z"/><path class="d" d="M92.64,69.04h.92v7.45h-.92v-7.45Z"/><path class="d" d="M99.56,73.82v.38h-3.55c0,.47,.19,.92,.52,1.25,.34,.31,.78,.47,1.24,.45,.23,0,.46-.03,.69-.09,.24-.06,.48-.16,.7-.28v.8c-.23,.09-.47,.16-.72,.21-.29,.05-.58,.07-.87,.07-.68,.03-1.33-.23-1.8-.72-.47-.56-.7-1.27-.65-2-.04-.68,.19-1.35,.64-1.87,.43-.47,1.05-.73,1.69-.71,.59-.03,1.16,.21,1.55,.66,.41,.53,.61,1.19,.56,1.85Zm-.87-.23c0-.42-.14-.83-.39-1.16-.22-.27-.55-.41-.9-.4-.35,0-.69,.15-.92,.42-.27,.32-.42,.72-.44,1.14h2.65Z"/><path class="d" d="M103.78,71.62v.76c-.39-.19-.83-.29-1.27-.29-.22-.01-.43,.04-.61,.16-.14,.09-.23,.24-.23,.41,0,.16,.07,.3,.19,.41,.24,.19,.5,.34,.78,.46,.41,.16,.78,.4,1.09,.71,.2,.23,.31,.53,.3,.83,0,.43-.2,.84-.55,1.09-.44,.28-.96,.42-1.48,.4-.23,0-.46-.02-.68-.07-.22-.04-.43-.1-.64-.18v-.78c.22,.11,.44,.19,.68,.25,.21,.06,.43,.09,.65,.09,.26,.01,.51-.06,.73-.2,.17-.12,.28-.32,.27-.53,0-.16-.05-.31-.16-.43-.22-.2-.48-.35-.75-.47-.4-.17-.77-.41-1.08-.71-.19-.22-.29-.49-.29-.78-.03-.4,.16-.78,.5-1,.39-.27,.85-.4,1.32-.37,.21-.01,.41-.01,.62,0,.21,.07,.41,.15,.61,.24Z"/><path class="d" d="M0,93.69v-9.77l6.64,7.84v-7.45h.8v9.66l-6.64-7.86v7.58H0Z"/><path class="d" d="M9.77,93.69v-9.38h.87v9.38h-.87Z"/><path class="d" d="M14.64,93.69v-8.58h-2.58v-.8h6v.8h-2.59v8.58h-.83Z"/><path class="d" d="M17.86,93.15c0-.17,.07-.34,.19-.46,.12-.13,.29-.2,.47-.19,.36,0,.65,.29,.65,.65,0,.18-.06,.35-.19,.47-.12,.12-.29,.19-.46,.19-.36,0-.65-.28-.66-.64,0,0,0-.01,0-.02h0Z"/><path class="d" d="M29.2,89.62c-.23,.15-.47,.26-.73,.34-.24,.08-.5,.12-.75,.12-.75,.03-1.48-.26-2-.8-1.06-1.23-1.02-3.06,.09-4.25,.6-.56,1.41-.86,2.23-.83,1.48-.1,2.77,1.01,2.87,2.5,0,.12,0,.25,0,.37,0,.57-.14,1.14-.38,1.66-.41,.83-.9,1.61-1.47,2.33l-2.24,3-.7-.43,3.08-4.01Zm.85-2.5c.03-.59-.18-1.16-.58-1.59-.4-.41-.95-.63-1.52-.6-.57-.02-1.13,.21-1.52,.63-.4,.46-.6,1.06-.57,1.67-.02,.57,.19,1.12,.58,1.54,.83,.81,2.17,.81,3,0,.41-.44,.63-1.03,.61-1.63v-.02Z"/><path class="d" d="M35.51,93.94c-.94,.01-1.81-.48-2.28-1.29-1.11-2.25-1.11-4.89,0-7.14,.78-1.27,2.44-1.67,3.71-.89,.36,.22,.66,.53,.89,.89,1.11,2.26,1.11,4.9,0,7.16-.49,.81-1.37,1.29-2.32,1.27Zm-2.25-4.84c-.05,1.03,.16,2.06,.6,3,.3,.66,.96,1.08,1.68,1.08,.72,.01,1.38-.4,1.69-1.05,.44-.96,.63-2.01,.57-3.06,.05-1.03-.15-2.06-.58-3-.33-.63-1-1.02-1.71-1-.72,0-1.36,.43-1.65,1.09-.43,.92-.64,1.93-.6,2.94h0Z"/><path class="d" d="M43.07,93.94c-.94,.01-1.81-.48-2.28-1.29-1.11-2.25-1.11-4.89,0-7.14,.48-.81,1.36-1.31,2.3-1.29,.94-.02,1.82,.47,2.29,1.29,1.11,2.26,1.11,4.9,0,7.16-.48,.81-1.37,1.3-2.31,1.27Zm-2.26-4.84c-.05,1.04,.16,2.07,.61,3,.45,.93,1.57,1.32,2.5,.87,.38-.18,.69-.49,.87-.87,.44-.96,.63-2.01,.57-3.06,.05-1.03-.15-2.06-.58-3-.33-.63-1-1.02-1.71-1-.72,0-1.37,.43-1.66,1.09-.44,.93-.64,1.95-.6,2.97h0Z"/><path class="d" d="M48.1,93.15c0-.36,.29-.65,.65-.65,.18,0,.35,.06,.47,.19,.12,.12,.19,.29,.18,.46,0,.17-.06,.34-.18,.47-.13,.12-.29,.19-.47,.19-.17,0-.34-.07-.46-.19-.13-.12-.2-.29-.19-.47Z"/><path class="d" d="M54.41,93.94c-.94,.01-1.81-.48-2.28-1.29-1.12-2.25-1.12-4.89,0-7.14,.48-.82,1.36-1.31,2.3-1.29,.94-.02,1.82,.47,2.29,1.29,1.11,2.26,1.11,4.9,0,7.16-.48,.81-1.37,1.3-2.31,1.27Zm-2.26-4.84c-.05,1.04,.16,2.07,.61,3,.3,.65,.95,1.08,1.67,1.08,.72,.02,1.38-.4,1.69-1.05,.78-1.96,.78-4.14,0-6.1-.33-.63-.99-1.02-1.7-1-.72,0-1.37,.43-1.66,1.09-.44,.93-.65,1.95-.61,2.98h0Z"/><path class="d" d="M59.64,93.62l4.28-8.44h-4.53v-.73h5.76l-4.73,9.58-.78-.41Z"/><path class="d" d="M68,88.03c.23-.1,.46-.17,.7-.23,.23-.05,.46-.08,.69-.08,1.54-.11,2.89,1.04,3,2.58,.01,.14,.01,.28,0,.42,.04,.88-.28,1.73-.87,2.38-.61,.61-1.44,.94-2.3,.9-.6,.01-1.19-.14-1.71-.44-.51-.34-.92-.81-1.19-1.36l.67-.49c.23,.46,.57,.86,1,1.15,.39,.25,.85,.38,1.31,.37,.62,.03,1.22-.21,1.64-.67,.43-.49,.65-1.14,.62-1.79,.03-.61-.2-1.21-.63-1.65-.46-.43-1.07-.65-1.7-.61-.37,0-.73,.05-1.08,.17-.32,.11-.61,.28-.86,.51h-.26l1.2-4.71h3.79v.73h-3.2l-.82,2.82Z"/><path class="d" d="M74.55,93.15c0-.17,.06-.34,.19-.46,.12-.12,.29-.19,.46-.19,.18,0,.35,.06,.47,.19,.12,.12,.19,.29,.19,.46,0,.36-.3,.66-.66,.66-.17,0-.33-.07-.46-.19-.13-.12-.2-.29-.19-.47Z"/><path class="d" d="M81.71,93.69v-2.38h-4.23l5.08-7.22v6.53h1v.73h-1v2.38l-.85-.04Zm0-3.11v-4.22l-2.95,4.26,2.95-.04Z"/><path class="d" d="M86.89,88.03c.23-.1,.47-.17,.71-.23,.22-.05,.45-.08,.68-.08,.8-.04,1.58,.26,2.15,.82,.56,.56,.86,1.34,.82,2.13,.04,.88-.28,1.74-.88,2.38-.6,.61-1.43,.93-2.29,.9-.6,.01-1.19-.14-1.71-.44-.51-.33-.93-.81-1.19-1.36l.66-.49c.24,.46,.58,.85,1,1.15,.39,.25,.85,.38,1.32,.37,.62,.03,1.22-.22,1.64-.67,.43-.49,.65-1.14,.61-1.79,.03-.61-.2-1.21-.62-1.65-.46-.42-1.07-.64-1.7-.61-.37,0-.74,.05-1.09,.17-.32,.11-.61,.28-.85,.51h-.27l1.2-4.71h3.79v.73h-3.23l-.75,2.87Z"/><path class="d" d="M94.71,88.53c.23-.14,.48-.26,.74-.35,.25-.08,.5-.12,.76-.12,.75-.03,1.48,.26,2,.8,.52,.57,.79,1.32,.76,2.09,.03,.81-.28,1.6-.86,2.17-.6,.56-1.4,.86-2.22,.83-.77,.04-1.53-.24-2.09-.78-.53-.56-.81-1.32-.77-2.09,0-.54,.12-1.07,.33-1.57,.42-.85,.93-1.66,1.51-2.42l2.19-3.05,.69,.43-3.04,4.06Zm-.83,2.5c-.03,.58,.18,1.15,.57,1.58,.4,.41,.96,.62,1.53,.59,.57,.03,1.12-.2,1.51-.62,.4-.46,.6-1.06,.57-1.67,.02-.57-.19-1.12-.58-1.53-.83-.81-2.17-.81-3,0-.42,.44-.64,1.04-.6,1.65Z"/><path class="d" d="M100.64,90.45h2.79v.83h-2.79v-.83Z"/><path class="d" d="M107.81,93.69v-8.53h-1.69l.41-.76h2.11v9.29h-.83Z"/></g></g></svg>