<?xml version="1.0" encoding="UTF-8"?><svg xmlns="http://www.w3.org/2000/svg" viewBox="0 0 135.08 110.25"><defs><style>.d{fill:#fff;}</style></defs><g id="a"/><g id="b"><g id="c"><g><path class="d" d="M51.18,0c.9-.04,1.79,.3,2.65,.8,26.5,15.29,53,30.57,79.49,45.86,2.33,1.34,2.35,2.24,.06,3.57-15.66,9.14-31.34,18.26-47,27.4-1.72,1-3.43,.99-5.13,0-18.64-10.77-37.27-21.53-55.91-32.3-7.7-4.45-15.4-8.89-23.1-13.34-.27-.15-.53-.31-.8-.47-1.93-1.19-1.93-2.23,0-3.36C16.48,19.41,31.49,10.65,46.53,1.92,47.95,1.09,49.26-.06,51.18,0Zm62.69,43.3c-.23-.44-.63-.56-.96-.75-3.77-2.18-7.54-4.36-11.32-6.54-13.56-7.84-27.12-15.68-40.68-23.53-.65-.38-1.17-.48-1.93-.07-5.28,2.83-10.59,2.83-15.85-.08-.59-.33-1-.35-1.55-.02-6.73,3.91-13.47,7.82-20.22,11.71-.73,.42-.89,.67-.02,1.2,4.46,2.72,4.5,6.05,.11,8.91-.95,.62-.79,.85,.07,1.35,17.26,9.97,34.51,19.96,51.75,29.96,.77,.45,1.32,.43,2.15,.03,5.28-2.53,10.53-2.48,15.62,.55,.73,.43,1.2,.44,1.89,.03,6.3-3.69,12.63-7.35,18.94-11.02,1.97-1.15,1.96-1.16,.13-2.37-.15-.1-.29-.19-.44-.3-3.14-2.25-3.18-5.41-.06-7.71,.73-.53,1.56-.91,2.36-1.37Z"/><path class="d" d="M6.25,57.89c.39,.2,.79,.39,1.16,.61,13.76,7.95,27.51,15.91,41.26,23.87,11.51,6.66,23.02,13.3,34.51,19.98,.97,.56,1.68,.52,2.64-.04,13.9-8.14,27.83-16.23,41.75-24.35,.76-.44,1.39-.55,2.18-.05,1.41,.9,2.89,1.68,4.33,2.54,1.19,.71,1.19,.79-.05,1.51-6.93,4.02-13.86,8.04-20.79,12.05-8.99,5.2-18,10.37-26.95,15.64-1.36,.8-2.36,.79-3.7,0-10.03-5.86-20.12-11.64-30.17-17.46-16.91-9.79-33.82-19.59-50.73-29.39-1.96-1.14-1.95-1.15-.05-2.28,1.21-.72,2.41-1.45,3.63-2.16,.3-.18,.63-.3,.99-.48Z"/><path class="d" d="M134.91,65.42c-.19,.43-.63,.58-1,.79-7.47,4.32-14.94,8.63-22.41,12.94-8.5,4.91-17.02,9.79-25.49,14.75-1.21,.71-2.12,.75-3.35,.03-19.19-11.13-38.41-22.22-57.62-33.31-7.89-4.56-15.78-9.11-23.67-13.68-1.6-.93-1.6-.99,0-1.95,1.25-.75,2.52-1.45,3.74-2.24,.75-.49,1.36-.51,2.17-.04,15,8.7,30.03,17.36,45.04,26.04,10.29,5.94,20.59,11.88,30.86,17.86,.9,.52,1.54,.44,2.4-.06,13.96-8.13,27.95-16.22,41.9-24.35,.93-.54,1.65-.54,2.53,.02,1.41,.9,2.88,1.7,4.32,2.55,.25,.15,.58,.26,.59,.65Z"/><path class="d" d="M67.54,25.88c6.05-.01,11.8,1.17,17.01,4.4,.97,.6,1.88,1.3,2.7,2.11,4.12,4.05,4.19,9.32,.15,13.45-2.87,2.93-6.49,4.52-10.37,5.49-7.81,1.95-15.52,1.65-23.03-1.43-2.34-.96-4.47-2.26-6.27-4.07-4.32-4.34-4.1-9.97,.56-13.96,4.03-3.45,8.87-4.91,13.98-5.7,1.75-.27,3.5-.29,5.27-.29Zm1.37,15.86v.04c2.9,0,5.81-.06,8.71,.03,1.36,.04,1.48-.63,1.49-1.7,0-1.09-.16-1.71-1.5-1.68-3.52,.08-7.04,.03-10.55,.03-2.21,0-2.25,0-2.27-2.19,0-.96-.34-1.37-1.31-1.33-1.19,.05-2.37,.03-3.56,0-.78-.01-1.1,.34-1.08,1.12,.03,1.45,.07,2.91-.01,4.35-.06,1.09,.39,1.35,1.39,1.33,2.9-.05,5.8-.02,8.71-.02Z"/><path class="d" d="M40.57,20.83c.82-.03,1.27,.12,1.7,.37,1.83,1.05,3.67,2.07,5.48,3.14,1.31,.78,1.3,1.37-.05,2.14-4.5,2.57-3.49,2.61-7.87,.08-1.1-.64-2.2-1.28-3.29-1.93-.48-.29-1.02-.79-.46-1.23,1.43-1.15,2.99-2.12,4.49-2.56Z"/><path class="d" d="M91.48,49.77c.26,.11,.73,.24,1.14,.47,1.87,1.06,3.74,2.13,5.58,3.24,1.12,.67,1.09,1.18-.03,1.91-.04,.02-.08,.04-.11,.07-4.73,2.72-3.52,2.55-7.86,.13-1.07-.6-2.14-1.21-3.18-1.86-1.08-.66-1.08-1.15-.08-1.84,1.96-1.34,3.59-2.14,4.54-2.12Z"/></g></g></g></svg>