<?xml version="1.0" encoding="UTF-8"?><svg xmlns="http://www.w3.org/2000/svg" viewBox="0 0 134.53 109.08"><defs><style>.d{fill:#fff;stroke:#fff;stroke-miterlimit:10;}</style></defs><g id="a"/><g id="b"><g id="c"><g><path class="d" d="M70.05,82.37h-1.72c-10.95,0-21.91,0-32.86,0-2.55,0-2.95-.4-2.96-2.92q0-3-3.04-3c-8.79,0-17.58,0-26.37,0-2.16,0-2.51-.41-2.58-2.58-.19-6.09,1.42-11.56,5.51-16.17,6.21-7.02,15.93-9.47,24.75-6.31,2.67,.96,5.17,2.23,7.38,4.01,.75,.6,1.17,.54,1.81-.15,4.65-5.06,10.38-8.18,17.17-9.2,9.02-1.36,17.07,.92,24.07,6.81,.2,.17,.38,.35,.58,.52,1.86,1.62,2.06,1.63,4.02,.25,1.67-1.18,3.39-2.26,5.32-2.96,.81-.3,1.14-.74,1.11-1.63-.06-1.86-.03-3.72-.01-5.59,.01-1.58,.53-2.16,2.08-2.17,4.5-.03,9.01-.03,13.51,0,1.59,0,2.16,.62,2.18,2.25,.03,1.77,.05,3.55,0,5.33-.03,.95,.25,1.5,1.17,1.87,2.13,.86,4.14,2,5.91,3.47,.73,.61,1.33,.55,2.1,.07,1.54-.97,3.12-1.86,4.7-2.77,1.42-.81,2.15-.64,2.99,.8,2.24,3.86,4.46,7.72,6.66,11.6,.87,1.52,.66,2.18-.85,3.07-1.6,.94-3.21,1.89-4.84,2.79-.7,.39-.97,.82-.77,1.67,.54,2.31,.5,4.65,0,6.96-.19,.9,.08,1.34,.83,1.75,1.64,.89,3.23,1.85,4.84,2.78,1.38,.8,1.63,1.54,.87,2.88-2.27,3.99-4.56,7.96-6.87,11.93-.7,1.2-1.49,1.39-2.72,.7-1.62-.91-3.24-1.84-4.82-2.82-.81-.5-1.44-.52-2.22,.11-1.79,1.46-3.77,2.63-5.92,3.45-.83,.32-1.09,.83-1.07,1.68,.04,1.77,.03,3.55,0,5.33-.02,1.76-.6,2.4-2.32,2.42-4.37,.03-8.75,.03-13.12,0-1.81-.01-2.32-.57-2.33-2.35-.01-1.82-.03-3.64,0-5.46,.02-.8-.24-1.25-1.02-1.56-2.22-.89-4.31-2.04-6.15-3.57-.67-.56-1.19-.63-1.95-.14-1.53,.98-3.12,1.87-4.7,2.77-1.57,.9-2.27,.71-3.18-.84-2.08-3.6-4.15-7.2-6.22-10.8-1.33-2.31-1.31-2.46,1.03-4.24Zm30.99,22.99c1.56,0,3.12-.02,4.67,.01,.79,.02,1.07-.31,1.06-1.08-.03-1.77,.02-3.55-.01-5.32-.02-1.11,.48-1.79,1.53-2.12,3.07-.95,5.77-2.55,8.15-4.69,.91-.82,1.75-.92,2.8-.26,1.46,.92,3,1.73,4.48,2.63,.6,.36,.96,.38,1.34-.3,1.55-2.75,3.13-5.49,4.73-8.21,.37-.63,.27-.99-.38-1.34-1.52-.83-2.99-1.74-4.52-2.56-1.09-.59-1.4-1.43-1.16-2.59,.65-3.09,.64-6.18,0-9.27-.25-1.17,.11-2,1.19-2.58,1.49-.8,2.92-1.69,4.4-2.51,.63-.35,.89-.69,.45-1.42-1.59-2.68-3.15-5.38-4.68-8.09-.4-.72-.78-.74-1.44-.34-1.55,.95-3.14,1.82-4.71,2.74-.82,.48-1.56,.41-2.26-.23-2.47-2.24-5.3-3.87-8.47-4.92-1-.33-1.46-.98-1.45-2.04,.02-1.73-.03-3.46,.02-5.19,.02-.91-.32-1.21-1.21-1.2-2.99,.04-5.97,.03-8.96,0-.83,0-1.18,.29-1.16,1.13,.03,1.64-.02,3.29,.01,4.93,.03,1.31-.53,2.1-1.8,2.49-2.98,.93-5.62,2.48-7.9,4.59-.96,.89-1.85,.92-2.92,.25-1.43-.9-2.93-1.68-4.36-2.58-.68-.42-1.04-.31-1.43,.38-1.51,2.68-3.05,5.34-4.61,7.98-.43,.73-.3,1.14,.44,1.54,1.52,.82,3,1.73,4.5,2.59,.95,.54,1.28,1.26,1.06,2.37-.64,3.17-.64,6.37,0,9.54,.23,1.12-.15,1.83-1.1,2.35-1.47,.82-2.92,1.69-4.4,2.5-.75,.41-.98,.82-.49,1.64,1.55,2.6,3.07,5.22,4.53,7.88,.48,.86,.92,.8,1.63,.37,1.44-.88,2.93-1.68,4.36-2.57,1-.62,1.83-.52,2.69,.27,2.33,2.14,5.02,3.68,8.02,4.67,1.21,.4,1.77,1.14,1.75,2.39-.02,1.51,.06,3.03-.02,4.54-.07,1.21,.27,1.75,1.58,1.65,1.33-.1,2.68-.02,4.02-.02Zm-45.64-26.23c6.1,0,12.21,0,18.31,0,.79,0,1.54,.02,1.34-1.13-.4-2.24-.35-4.48,.05-6.71,.13-.75-.05-1.19-.75-1.56-1.6-.86-3.16-1.79-4.73-2.71-1.75-1.02-1.9-1.56-.89-3.34,1.91-3.35,3.81-6.7,5.78-10,.6-1,.44-1.45-.6-1.95-5.05-2.47-10.34-3.43-15.89-2.57-9.38,1.44-16.18,6.43-20.2,15.07-1.99,4.28-2.19,8.85-2.11,13.47,.02,1.16,.38,1.47,1.5,1.46,6.06-.05,12.12-.02,18.18-.02Zm-37.27-5.9c4.24,0,8.49-.05,12.73,.03,1.3,.02,1.78-.45,1.86-1.68,.29-4.32,1.72-8.28,3.96-11.96,.47-.77,.38-1.18-.33-1.69-5.1-3.65-10.67-5.43-16.99-4.37-8.69,1.46-15.53,9.41-15.6,18.08,0,1.28,.42,1.63,1.64,1.61,4.24-.06,8.49-.02,12.73-.02Z"/><path class="d" d="M61.78,38.72c-10.36,0-19.08-8.7-19.09-19.02-.01-10.51,8.67-19.2,19.18-19.19,10.32,0,19.02,8.73,19.03,19.09,0,10.43-8.69,19.13-19.12,19.13Zm15.89-19.04c-.07-8.53-6.52-15.85-15.94-15.94-8.67-.08-15.88,7.14-15.81,15.81,.08,9.4,7.4,15.9,15.94,15.93,8.65,.03,15.8-7.15,15.81-15.8Z"/><path class="d" d="M35.74,29.86c-.02,7.23-5.97,13.16-13.26,13.21-7.25,.05-13.17-5.98-13.15-13.41,.02-7.27,5.98-13.16,13.28-13.12,7.25,.03,13.14,6.01,13.13,13.32Zm-3.24-.02c.01-5.61-4.33-10.03-9.88-10.06-5.69-.03-10.07,4.31-10.08,9.97-.01,5.66,4.4,10.13,9.99,10.12,5.52,0,9.95-4.47,9.97-10.04Z"/><path class="d" d="M89.35,74.75c.02-6.43,5.39-11.73,11.81-11.68,6.38,.05,11.72,5.45,11.72,11.84,0,6.4-5.35,11.77-11.75,11.81-6.54,.04-11.8-5.31-11.78-11.97Zm20.29,.16c0-4.78-3.78-8.58-8.55-8.6-4.74-.02-8.52,3.79-8.53,8.58,0,4.79,3.83,8.68,8.51,8.64,4.76-.04,8.57-3.87,8.57-8.62Z"/></g></g></g></svg>