<svg xmlns="http://www.w3.org/2000/svg" viewBox="0 0 156.97 134.02"><defs><style>.d{fill:#fff}</style></defs><g id="b"><g id="c"><path class="d" d="M38.32 101.41c3.48 0 6.95.05 10.43-.02 2.08-.04 3.45.74 4.61 2.52 8.94 13.73 21.57 21.99 37.75 24.28 28.44 4.02 54.69-15.3 59.74-43.63 5.12-28.73-14.6-57.05-43.46-61.51-22.64-3.49-40.66 4.78-53.74 23.57-1.42 2.04-2.89 2.96-5.37 2.92-6.74-.13-13.47-.04-20.21-.05-.59 0-1.18.02-1.76-.07-1.56-.24-2.47-1.26-2.45-2.69.02-1.52.89-2.36 2.31-2.64.62-.12 1.28-.12 1.91-.12 6.36 0 12.73-.03 19.09.02 1.27.01 2.06-.41 2.76-1.47 2.24-3.41 4.88-6.5 7.9-9.24 1.03-.93 1.02-1.62.24-2.69-1.64-2.24-3.18-4.56-4.7-6.89-.56-.85-1.05-1.08-1.9-.4-.75.6-1.57 1.12-2.39 1.62-1.52.92-2.87.68-3.97-.66-3.68-4.49-2.94-11.1 1.77-14.5 3.9-2.82 7.88-5.53 11.93-8.12C63.6-1.42 69.6.03 72.71 4.8c1.27 1.94 1.01 3.34-.86 4.66q-3.11 2.19-.94 5.4c1.14 1.68 2.38 3.31 3.41 5.05.77 1.3 1.49 1.56 2.96.96 6.75-2.77 13.84-4.1 21.12-4.09 7.32 0 14.47 1.29 21.28 4.08 1.22.5 1.87.38 2.59-.77 1.53-2.45 3.18-4.82 4.86-7.16.75-1.05.61-1.66-.48-2.27-.83-.47-1.62-1.04-2.36-1.65-1.2-.99-1.39-2.21-.66-3.58 2.63-4.91 8.86-6.95 13.64-4.1 4.49 2.69 8.84 5.64 13.01 8.8 4.43 3.36 4.86 9.9 1.28 14.2-1.06 1.27-2.39 1.51-3.85.64-.69-.41-1.4-.81-1.99-1.35-1.22-1.11-1.93-.7-2.71.56a88.887 88.887 0 0 1-4.31 6.37c-.83 1.11-.81 1.77.24 2.76 5.87 5.54 10.37 12.06 13.49 19.51 2.73 6.52 4.27 13.29 4.5 20.38.56 17.45-5.45 32.31-17.86 44.43-10.15 9.92-22.47 15.54-36.71 16.3-22.05 1.17-39.42-7.62-52.33-25.4-.81-1.12-1.6-1.62-3-1.61-6.36.07-12.73.03-19.09.03-.75 0-1.49.04-2.22-.22-1.2-.42-1.83-1.26-1.85-2.52-.02-1.28.62-2.16 1.82-2.53.65-.2 1.37-.25 2.05-.25 3.53-.02 7.06-.01 10.59-.01Zm94.96-73.06c.41-.05.6-.31.78-.58 1.68-2.47 3.34-4.96 5.06-7.41.53-.76.21-1.12-.41-1.53-1.78-1.18-3.56-2.36-5.3-3.6-.66-.47-1.05-.48-1.53.25-1.58 2.41-3.2 4.8-4.86 7.15-.6.85-.55 1.34.38 1.9 1.74 1.04 3.41 2.2 5.11 3.3.26.17.53.34.78.5ZM64.06 14.87c-.11.05-.27.08-.4.17-1.99 1.35-3.97 2.71-5.96 4.06-.67.45-.32.88 0 1.34 1.59 2.34 3.2 4.68 4.75 7.04.52.79.95.96 1.79.38 1.67-1.15 3.4-2.22 5.15-3.25.8-.47 1.11-.85.49-1.73-1.72-2.45-3.38-4.94-5.07-7.41-.17-.25-.32-.57-.74-.61Zm.2-9.33c-1-.07-1.91.18-2.73.74-3.79 2.58-7.58 5.16-11.36 7.75-1.07.73-1.64 1.79-1.87 3.05-.09.48-.25 1.04.17 1.35.5.36.87-.21 1.23-.46 5.17-3.49 10.33-7 15.47-10.53.48-.33 1.45-.54 1.24-1.21-.2-.64-1.13-.66-1.83-.69h-.32Zm68.31-.03c-.37.03-.75.02-1.11.11-.45.11-1.08.14-1.19.66-.1.48.5.62.84.85 5.29 3.61 10.58 7.21 15.88 10.8.37.25.77.82 1.24.5.4-.28.2-.9.15-1.37-.15-1.58-1.16-2.6-2.37-3.43-3.47-2.39-6.96-4.76-10.45-7.12-.9-.61-1.86-1.06-2.99-1Z"/><path class="d" d="M98.38 120.47c-24.9 0-45-20.06-45.02-44.94-.01-24.94 20.15-45.12 45.06-45.11 24.78.02 44.99 20.26 44.99 45.07 0 24.82-20.18 44.97-45.03 44.98Zm39.48-46.87c-.5-20.24-18.62-39.74-43.26-37.56-19.75 1.75-36.75 18.78-35.83 41.06.92 22.26 19.55 38.97 41.33 37.95 23.16-1.08 38.98-20.82 37.75-41.45ZM22.33 78.11H2.94c-1.09 0-2.01-.3-2.56-1.31-.5-.91-.51-1.85.04-2.74.71-1.15 1.84-1.3 3.07-1.3 9.72.02 19.44 0 29.17 0h8.65c2.44 0 3.8.99 3.77 2.72-.03 1.71-1.29 2.61-3.68 2.61H22.33ZM29.41 58.36c4.76 0 9.51-.02 14.27.01 1.86.01 3 .88 3.16 2.31.17 1.47-.45 2.48-1.86 2.98-.77.27-1.58.24-2.38.24H16.14c-.74 0-1.5-.04-2.23-.17-1.45-.27-2.26-1.16-2.24-2.67.01-1.42.98-2.47 2.51-2.63.95-.1 1.92-.05 2.88-.05h12.35ZM29.23 87.19h14.42c2.16 0 3.24.92 3.21 2.67-.03 1.64-1.15 2.65-3.14 2.65-9.66.02-19.33.02-28.99 0-1.94 0-3.08-1.08-3.07-2.73 0-1.64 1.14-2.58 3.16-2.59 4.81-.01 9.61 0 14.42 0Z"/><path class="d" d="M101.06 54.83c0 3.42.02 6.84-.02 10.27-.01.92.32 1.42 1.16 1.85 5.26 2.65 6.99 7.85 4.33 13.08-.45.88-.27 1.29.42 1.85 3.41 2.76 6.8 5.54 10.16 8.35 1.7 1.41 1.69 3.56.05 4.59-1.37.86-2.54.36-3.65-.55-3.55-2.92-7.13-5.81-10.65-8.76-.89-.74-1.68-1.04-2.89-.8-4.55.9-9.01-1.79-10.51-6.19-1.51-4.43.45-9.35 4.72-11.37 1.25-.59 1.57-1.28 1.56-2.56-.05-6.74-.03-13.48-.02-20.21 0-1.91.81-2.93 2.33-3.07 1.75-.16 2.96.98 2.99 2.95.04 3.53.01 7.06.01 10.59Zm1.19 20.57c-.02-2.34-1.61-3.86-3.97-3.83-2.2.03-3.96 1.82-3.93 3.98.03 2.1 1.95 3.95 4.07 3.92 2.16-.03 3.86-1.83 3.84-4.07Z"/></g></g></svg>