<?xml version="1.0" encoding="UTF-8"?><svg xmlns="http://www.w3.org/2000/svg" viewBox="0 0 103.41 103.5"><defs><style>.d{fill:#fff;}</style></defs><g id="a"/><g id="b"><g id="c"><path class="d" d="M66.55,103.49c-11.2,0-22.41,0-33.62,0-.33,0-.67,.01-1,0-1.01-.06-1.8-.69-2.05-1.63-.24-.92,.09-1.82,.92-2.36,.71-.46,1.46-.85,2.11-1.41,1.08-.93,1.1-1.71,.56-3.03-.58-1.41-1.26-2.79-1.84-4.17-.55-1.31-.91-2.35-2.28-3-.98-.47-1.1-1.68-.54-2.8,.96-1.92,1.92-3.83,2.91-5.73,.3-.57,.45-1.1-.23-1.46-.72-.38-1.11,.05-1.42,.66-1.16,2.29-2.35,4.57-3.51,6.85-.26,.52-.57,.99-1.04,1.35-1.11,.85-2.6,.54-3.25-.69-.18-.34-.27-.73-.38-1.11-.15-.52-.49-.74-1.02-.68-.52,.06-.69,.41-.72,.88-.11,2.05-.27,4.1-.31,6.15-.04,2.05-.33,4.03-1.3,5.86-.73,1.4-1.11,2.93-1.56,4.43-.42,1.4-1.06,1.89-2.48,1.89-4.05,0-8.09,0-12.14,0-1.47,0-2.4-.83-2.37-2.26,.15-6.25,.85-12.41,3.23-18.26,1.58-3.88,4.12-7.01,7.56-9.4,6.51-4.52,13.57-7.86,21.31-9.7,1.59-.38,3.04-1.16,4.51-1.87,.38-.18,.57-.52,.73-.89,.49-1.08,.79-2.21,1.05-3.37,.12-.52,.02-.99-.27-1.47-4.4-7.2-6.76-15.1-8.07-23.38-.56-3.53-.87-7.07-.68-10.64,.21-3.96,.74-7.87,2.46-11.52,2.69-5.7,7.16-9.08,13.34-10.14,4.56-.78,9.15-.87,13.68,.08,7.58,1.6,12.07,6.49,14.06,13.79,1.26,4.65,1.43,9.42,.96,14.2-.65,6.64-2.05,13.11-4.49,19.34-1.1,2.82-2.43,5.53-4.02,8.1-.38,.61-.43,1.2-.33,1.89,.4,2.55,1.51,4.4,4.2,5.17,1.39,.39,2.76,.85,4.16,1.23,6.92,1.89,13.24,5.03,19.14,9.07,5,3.43,7.79,8.32,9.17,14.09,1.04,4.35,1.72,8.76,1.71,13.26,0,1.93-.74,2.66-2.7,2.66-11.39,0-22.77,0-34.16,0Zm1.66-4.29h0c9.85,0,19.69,0,29.54,0,1.21,0,1.28-.04,1.17-1.19-.28-2.88-.63-5.76-1.28-8.59-1.13-4.95-3.27-9.28-7.57-12.26-5.33-3.69-11.04-6.6-17.31-8.32-2.6-.72-5.15-1.5-7.57-2.7-1.5-.74-2.52-1.82-3.2-3.31-.71-1.58-1.12-3.25-1.48-4.93-.28-1.3-.01-2.39,.72-3.5,1.47-2.22,2.64-4.61,3.66-7.07,2.47-5.93,3.84-12.13,4.52-18.49,.48-4.44,.37-8.88-.76-13.22-1.48-5.68-4.91-9.48-10.83-10.67-3.64-.73-7.32-.64-10.99-.18-2.68,.34-5.17,1.18-7.3,2.93-2.74,2.25-4.26,5.22-4.99,8.61-1.1,5.13-1.02,10.3-.23,15.48,1.27,8.33,3.64,16.25,8.26,23.38,.34,.53,.49,1.11,.41,1.73-.29,2.2-.8,4.34-1.79,6.33-.49,.98-1.1,1.9-2.09,2.45-1.8,.99-3.65,1.94-5.65,2.42-6.93,1.66-13.29,4.54-19.22,8.46-2.83,1.87-5.12,4.21-6.58,7.31-2.16,4.59-2.76,9.53-3.22,14.5-.06,.62,.17,.87,.82,.86,2.39-.02,4.77-.02,7.16,0,.54,0,.83-.19,.98-.7,.42-1.42,1.02-2.78,1.63-4.12,.2-.44,.34-.91,.36-1.4,.13-2.53,.3-5.06,.36-7.6,.1-4.28,3.74-6.69,7.67-4.99,.51,.22,.74,.16,.98-.33,.58-1.19,1.21-2.36,1.82-3.55,1.48-2.88,4.47-3.94,7.24-2.56,2.74,1.37,3.65,4.36,2.21,7.26-.56,1.14-1.12,2.28-1.72,3.39-.27,.5-.28,.85,.17,1.25,.79,.71,1.23,1.63,1.48,2.65,.07,.3,.15,.59,.35,.82,1.48,1.72,1.6,3.99,2.32,6.01,.31,.88,.11,1.91-.23,2.85-.36,.98-.34,.99,.73,.99,9.82,0,19.63,0,29.45,0Z"/></g></g></svg>