<svg xmlns="http://www.w3.org/2000/svg" viewBox="0 0 143.77 154"><path d="M71.79 154h-21.8c-3.01 0-4.01-.94-3.9-3.95.36-9.31 4.65-16.11 13.13-20.14 1.73-.82 1.73-.77.59-2.21-2.59-3.28-3.82-6.99-3.38-11.17.08-.8-.14-1.16-.84-1.42a44.821 44.821 0 0 1-13.56-7.94c-.68-.58-1.15-.48-1.73.12-1.49 1.54-2.99 3.08-4.56 4.54-.74.69-.76 1.25-.39 2.16 2.61 6.3-1.23 13.2-7.92 14.32-5.61.94-10.78-2.71-11.94-8.44-1.06-5.23 2.43-10.6 7.74-11.91 2.26-.56 4.46-.4 6.58.51.78.33 1.34.3 1.95-.33 1.55-1.62 3.13-3.21 4.76-4.76.72-.68.57-1.15 0-1.83-6.23-7.43-9.76-16-10.64-25.65-.09-.96-.47-1.26-1.36-1.25-2.73.03-5.46.05-8.19 0-1.04-.02-1.4.62-1.86 1.35-1.77 2.78-4.38 4.05-7.6 3.63-3.2-.41-5.46-2.26-6.49-5.39-1.23-3.77.53-7.73 4.12-9.44 3.57-1.7 7.8-.55 9.86 2.84.69 1.13 1.44 1.5 2.69 1.46 2.44-.08 4.88-.06 7.31-.01 1.03.02 1.42-.32 1.52-1.41.89-9.49 4.34-17.95 10.45-25.27.83-1 .78-1.54-.13-2.38-1.72-1.59-3.36-3.26-4.97-4.96-.69-.73-1.2-.8-2.12-.34-7.75 3.87-16.72-.44-18.58-8.89-1.51-6.89 3.09-13.92 10.03-15.31 7.1-1.43 14.02 3.17 15.37 10.15.57 2.94.19 5.74-1.21 8.36-.52.97-.36 1.55.39 2.26 1.7 1.61 3.36 3.26 4.96 4.97.78.83 1.33.81 2.18.1 6.59-5.51 14.16-8.88 22.65-10.19 1.06-.16 2.12-.32 3.19-.42.71-.07 1.04-.37 1.04-1.11-.02-2.83-.04-5.66 0-8.48.02-1.03-.75-1.26-1.39-1.67-2.77-1.74-4.15-4.82-3.6-8.03.53-3.13 2.83-5.54 5.99-6.28 3.62-.85 7.43 1.08 8.89 4.5 1.48 3.46.39 7.6-2.78 9.54-1.39.85-1.78 1.79-1.71 3.29.11 2.24.08 4.49 0 6.73-.03 1.06.34 1.46 1.39 1.56 5.58.53 10.92 1.97 15.98 4.4 3.4 1.63 6.58 3.62 9.44 6.09.87.75 1.46.84 2.3-.06 1.62-1.75 3.34-3.41 5.06-5.08.6-.58.81-1.06.36-1.89-4.4-8.16 1.03-17.74 9.89-18.97 6.93-.96 14.08 4.94 14.46 11.94.38 7.19-4.68 12.65-10.49 13.69-2.97.53-5.84.18-8.5-1.29-.73-.4-1.19-.35-1.77.25-1.79 1.86-3.62 3.69-5.48 5.49-.64.62-.59 1.07-.04 1.72 6.28 7.46 9.83 16.07 10.71 25.77.08.87.4 1.21 1.26 1.2 2.78-.02 5.56-.04 8.34.01 1.06.02 1.38-.68 1.83-1.39 1.79-2.77 4.41-4.01 7.62-3.59 3.14.42 5.38 2.23 6.42 5.28 1.3 3.81-.49 7.85-4.14 9.56-3.58 1.68-7.79.5-9.85-2.9-.65-1.08-1.37-1.45-2.57-1.41-2.48.08-4.97.05-7.46.01-.95-.01-1.36.27-1.46 1.31-.88 9.6-4.41 18.12-10.59 25.52-.69.83-.67 1.33.1 2.05a93.49 93.49 0 0 1 4.34 4.34c.73.78 1.37.93 2.42.53 6.33-2.41 12.87 1.24 14.04 7.78 1.01 5.64-2.8 11.03-8.51 12.01-5.5.94-10.87-2.87-11.9-8.36-.39-2.1-.11-4.09.71-6 .35-.81.23-1.32-.39-1.92-1.59-1.51-3.14-3.07-4.66-4.65-.6-.62-1.08-.64-1.73-.09a44.841 44.841 0 0 1-13.57 7.93c-.61.23-.92.52-.84 1.29.5 4.41-.81 8.3-3.68 11.63-.82.95-.65 1.19.4 1.66 8.9 4.01 13.38 10.98 13.65 20.68.07 2.61-1 3.61-3.65 3.62-7.41.01-14.82 0-22.24 0Zm26.85-79.34c-4.1 0-8.19.03-12.29-.02-1.12-.01-1.54.35-1.56 1.51-.08 4.63-.44 9.24-.87 13.85-.28 2.99-.28 2.96 2.57 3.6 4.78 1.07 9.51 2.35 13.29 5.7 1.06.94 1.58.78 2.42-.17 5.84-6.6 9.19-14.29 10.24-23.01.13-1.1-.27-1.48-1.36-1.48-4.14.04-8.29.01-12.43.01Zm-53.51-5.59c4.1 0 8.19-.03 12.29.02 1.12.01 1.54-.36 1.56-1.51.07-4.63.43-9.24.87-13.85.28-2.98.28-2.96-2.57-3.6-4.78-1.08-9.51-2.35-13.29-5.7-1.06-.94-1.59-.77-2.42.17-5.84 6.6-9.19 14.28-10.23 23.01-.13 1.1.28 1.48 1.36 1.48 4.14-.04 8.29-.01 12.43-.01Zm-.07 5.59c-4.1 0-8.19.02-12.29-.01-1 0-1.59.21-1.45 1.39 1.05 8.89 4.47 16.69 10.48 23.35.75.83 1.23.78 1.99.04 1.64-1.57 3.62-2.62 5.71-3.49 2.94-1.23 5.99-2.08 9.12-2.58 1.33-.21 1.59-.82 1.43-1.97-.69-5.02-.96-10.08-1.08-15.15-.03-1.21-.43-1.61-1.63-1.6-4.09.05-8.19.02-12.29.02Zm53.63-5.59c4.1 0 8.19-.01 12.29.01.99 0 1.6-.18 1.46-1.38-1.05-8.88-4.46-16.7-10.47-23.36-.74-.82-1.23-.81-1.99-.05-1.29 1.28-2.87 2.18-4.5 2.96-3.28 1.56-6.76 2.52-10.32 3.12-1.32.22-1.6.8-1.44 1.96.69 5.02.95 10.08 1.08 15.15.03 1.2.41 1.63 1.62 1.61 4.1-.05 8.19-.02 12.29-.02Zm-26.84 79.5h18.57c1.57 0 1.77-.26 1.48-1.81-1.25-6.5-6.45-11.71-12.99-12.93-3.67-.68-7.39-.28-11.09-.29-7.73-.02-14.41 5.55-15.94 13.14-.33 1.63-.14 1.88 1.54 1.88h18.43Zm-.05-51.01c-4.65.2-9.37.43-13.99 1.51-3.47.81-6.88 1.8-9.85 3.9-.93.66-1.1 1.16 0 1.91 2.78 1.91 5.7 3.55 8.81 4.87 1.16.5 1.76.28 2.5-.74 3.21-4.47 7.66-6.75 13.15-6.57 5.12.17 9.26 2.48 12.21 6.71.66.95 1.24 1.09 2.28.65 3.07-1.29 5.98-2.84 8.69-4.78 1.43-1.02 1.43-1.17-.04-2.23-1.03-.74-2.17-1.3-3.35-1.78-6.52-2.68-13.4-3.19-20.4-3.45Zm.15 10.26c-5.39-.07-10.08 4.54-10.19 10.02-.12 5.43 4.64 10.23 10.13 10.23 5.44 0 10.07-4.62 10.12-10.09.04-5.41-4.59-10.09-10.05-10.16Zm-.03-38.75c2.04 0 4.09-.03 6.13.01 1.01.02 1.43-.37 1.34-1.38-.11-1.26-.21-2.52-.23-3.79-.08-3.85-.51-7.66-.9-11.48-.09-.92-.51-1.17-1.32-1.09-.97.09-1.94.21-2.91.22-2.33.03-4.67.1-7-.2-.64-.08-1.38-.21-1.52.85-.65 5.17-.87 10.36-1.15 15.56-.05.94.33 1.32 1.27 1.31 2.09-.03 4.19 0 6.28 0Zm-.05 5.59c-1.9 0-3.8.07-5.69-.02-1.39-.07-1.92.38-1.81 1.82.37 4.94.5 9.9 1.13 14.83.11.9.47 1.19 1.3 1.11 3.4-.36 6.8-.36 10.2 0 .73.08 1.15-.12 1.26-.99.65-5.07.8-10.18 1.14-15.27.07-1.05-.29-1.51-1.39-1.48-2.04.05-4.09.02-6.13.01Zm56.19-51.46c.03-4.29-3.17-7.57-7.41-7.58-4.1-.01-7.59 3.39-7.68 7.48-.09 4.11 3.34 7.56 7.52 7.56 4.25 0 7.54-3.24 7.57-7.46Zm-112.29-.05c-.03 4.21 3.24 7.49 7.47 7.51 4.17.02 7.58-3.37 7.56-7.49-.02-4.05-3.56-7.54-7.62-7.51-4.04.03-7.38 3.4-7.41 7.5Zm67.74 21.98c4.31-.85 8.59-1.77 12.27-4.39.16-.11.3-.25.46-.37.54-.42.61-.77-.02-1.24-4.9-3.62-10.33-6.03-16.29-7.26-.74-.15-.92.06-.64.73 1.56 3.8 2.65 7.73 3.35 11.78.08.44.25.88.87.75Zm-23.36-.02c.88.21.98-.43 1.07-1.01.61-3.87 1.7-7.59 3.15-11.22.12-.3.42-.64.14-.94-.28-.31-.64-.03-.96.03-5.57 1.14-10.65 3.38-15.28 6.67-1.57 1.12-1.6 1.3.08 2.39 3.58 2.34 7.66 3.3 11.79 4.08Zm11.7 1.09c1.47-.09 2.98-.19 4.48-.28.55-.03.97-.13.83-.85-.86-4.46-1.82-8.89-4.21-12.84-.81-1.34-1.31-1.32-2.16.09-2.34 3.86-3.27 8.2-4.12 12.56-.16.8.16 1.03.92 1.06 1.41.05 2.82.17 4.27.26Zm46.08 66.8c-2.78 0-4.96 2.11-4.98 4.81-.02 2.74 2.24 5.01 5 5.02 2.71.01 4.98-2.18 5.02-4.85.04-2.68-2.29-4.98-5.03-4.98Zm-92.01.04c-2.78-.04-5.09 2.16-5.11 4.88-.02 2.64 2.25 4.89 4.95 4.91 2.71.02 4.98-2.15 5.04-4.83.06-2.63-2.2-4.93-4.88-4.97ZM7.95 69.48a2.36 2.36 0 0 0-2.41 2.25c-.06 1.36.94 2.47 2.29 2.52 1.28.04 2.48-1.12 2.47-2.39 0-1.21-1.12-2.34-2.34-2.37Zm127.95 0c-1.22-.02-2.36 1.05-2.43 2.28-.07 1.26 1.09 2.47 2.37 2.48 1.28 0 2.33-1 2.38-2.28.05-1.36-.98-2.46-2.32-2.48ZM74.18 8.03c.09-1.37-.88-2.5-2.2-2.57-1.25-.07-2.33.93-2.39 2.21-.07 1.43.83 2.47 2.19 2.52 1.33.05 2.32-.84 2.4-2.17Z" style="fill:#fff"/></svg>