<?xml version="1.0" encoding="UTF-8"?><svg xmlns="http://www.w3.org/2000/svg" viewBox="0 0 93.56 132.44"><defs><style>.d{fill:#fff;}</style></defs><g id="a"/><g id="b"><g id="c"><g><path class="d" d="M46.9,132.42c-10.58,0-21.16,0-31.74,0-3.94,0-4.46-.51-4.38-4.5,.08-3.53,.68-6.97,2.04-10.25,1.61-3.92,4.19-6.91,8.09-8.78,4.87-2.33,9.65-4.86,14.5-7.24,1.13-.55,1.49-1.26,1.59-2.52,.25-3.15-.41-5.4-3.22-7.57-5.22-4.05-7.49-9.87-7.5-16.52,0-3.68-.13-7.37,1.11-10.92,.24-.68-.07-1.04-.54-1.46-4.13-3.61-5.02-8.47-5.08-13.59-.02-1.59,1.39-2.61,2.84-2.06,6.63,2.53,13.55,2.3,20.43,2.21,12.36-.16,21.05,7.29,22.56,19.55,.89,7.23,.24,14.13-4.51,20.1-1.37,1.73-2.97,3.2-4.8,4.42-.74,.49-1.06,1.06-1.09,1.98-.14,5.66-.16,5.66,4.9,8.22,3.54,1.79,7,3.76,10.62,5.36,5.11,2.25,7.97,6.2,9.43,11.39,.81,2.89,1.2,5.85,1.23,8.85,.02,2.38-.8,3.24-3.18,3.31-2.36,.07-4.71,.03-7.07,.03-8.74,0-17.48,0-26.22,0Zm16.38-57.51c0,.06-.04-.29,0-.63,.27-1.75-.36-2.71-2.15-3.25-2.32-.7-4.39-2.01-6.18-3.68-.79-.74-1.37-.74-2.22-.11-1.54,1.12-3.29,1.88-5.09,2.49-4.78,1.61-9.7,2.37-14.73,2.41-1.45,.01-2.15,.51-2.04,2.02,.08,1.09,.03,2.19,.11,3.27,.67,9.42,10.08,16.52,19.29,14.58,7.6-1.6,12.88-8.38,13.02-17.1ZM29.78,127.83c4.31,0,8.63-.03,12.94,.02,1.23,.02,1.69-.78,2.23-1.6,.59-.89-.13-1.38-.59-1.93-4.06-4.78-8.16-9.52-12.18-14.33-.81-.97-1.48-.99-2.5-.45-2.39,1.27-4.8,2.48-7.24,3.64-1.89,.9-3.31,2.27-4.37,4.03-1.64,2.71-2.34,5.71-2.64,8.84-.13,1.38,.41,1.81,1.76,1.79,4.2-.06,8.4-.02,12.59-.03Zm34.39,0c3.51,0,7.01,.03,10.52,0,4.69-.04,4.47,.78,3.61-4.4-.8-4.82-2.96-8.77-7.87-10.71-2.08-.82-4.05-1.92-6.01-3.01-1.1-.61-1.71-.37-2.41,.61-3.8,5.34-7.66,10.63-11.49,15.95-.28,.39-.89,.79-.57,1.32,.29,.49,.95,.24,1.45,.24,4.25,.02,8.51,0,12.76,0Zm-1.6-60.98c0-.51,.04-.73,0-.94-1.32-6.14-7.89-11.86-14.18-12.02-6.99-.18-14.01,.23-20.92-1.28-.59-.13-.93,.04-.78,.7,.62,2.73,1.35,5.38,4.38,6.52,1.61,.6,2.05,1.67,1.5,3.28-.35,1.03-.75,2.05-1.09,3.08-.35,1.06-.06,1.68,1.19,1.58,4.98-.4,9.96-.83,14.65-2.74,1.66-.67,3.22-1.52,4.43-2.89,1.89-2.15,2.95-2.1,4.71,.25,1.55,2.07,3.64,3.36,6.11,4.46Zm-20.22,29.38c-.83-.24-1.01,.21-1.01,.91,0,1.43-.05,2.87,.01,4.3,.06,1.5-.52,2.52-1.89,3.15-1.04,.48-2.04,1.06-3.07,1.55-.87,.41-.89,.85-.28,1.56,3.74,4.36,7.46,8.73,11.15,13.12,.67,.79,1.1,.78,1.7-.06,3.04-4.25,6.09-8.48,9.19-12.69,.7-.95,.39-1.41-.51-1.83-.99-.47-1.93-1.03-2.93-1.46-1.4-.6-1.97-1.61-1.9-3.12,.07-1.49,0-2.98,.02-4.48,.01-.84-.28-1.16-1.14-.93-3.11,.84-6.23,.91-9.34-.02Z"/><path class="d" d="M46.84,40.13c-10.99,.07-20.1-8.85-20.18-19.78C26.57,9.19,35.47,.15,46.68,0c10.85-.14,20.11,8.95,20.18,19.83,.08,11.18-8.84,20.23-20.02,20.3Zm-15.56-20.09c-.01,8.68,6.88,15.65,15.47,15.65,8.53,0,15.45-6.91,15.49-15.46,.04-8.7-6.79-15.69-15.38-15.73-8.63-.04-15.56,6.88-15.58,15.53Z"/><path class="d" d="M10.96,98.68c-1.54-.15-2.11-1.27-2.16-2.72-.07-1.97-.27-3.91-.97-5.75-1.12-2.97-2.43-5.74-6.17-6.19-1.04-.12-1.67-1-1.65-2.13,.01-1.03,.52-1.86,1.52-2.06,5.72-1.14,6.3-5.82,7.17-10.29,.14-.73,.04-1.5,.17-2.23,.21-1.26,.9-2.2,2.26-2.17,1.43,.03,2.18,1,2.22,2.38,.06,2.26,.39,4.47,1.2,6.58,1.07,2.77,2.46,5.2,5.84,5.66,1.21,.17,1.91,1.12,1.82,2.36-.08,1.18-.88,1.9-2.03,2.01-2.2,.2-3.51,1.55-4.53,3.3-1.51,2.59-2.17,5.41-2.27,8.39-.06,1.86-.92,2.88-2.41,2.86Zm.18-20.91c-.95,1.33-1.67,2.58-2.71,3.56-.44,.41-.3,.76,.04,1.18,.72,.89,1.42,1.79,2.07,2.73,.4,.58,.67,.69,1.11,.03,.75-1.14,1.98-2.16,2.21-3.38,.14-.77-1.17-1.81-1.82-2.74-.26-.37-.49-.76-.89-1.38Z"/><path class="d" d="M82.55,80.4c-1.37,.05-2.31-.9-2.37-2.6-.07-2.21-.38-4.36-1.21-6.4-1.1-2.74-2.48-5.21-5.89-5.6-1.08-.13-1.67-1.01-1.72-2.09-.05-.95,.41-1.81,1.32-2.01,6.23-1.38,6.75-6.44,7.45-11.39,.03-.23,0-.46,.02-.69,.11-1.64,1.04-2.73,2.31-2.73,1.26,0,2.14,1.07,2.3,2.75,.12,1.26,.2,2.52,.42,3.76,.32,1.83,1,3.54,2.02,5.1,.97,1.48,2.16,2.66,4.06,2.9,1.32,.17,2.36,.84,2.29,2.32-.06,1.43-1.03,2.07-2.4,2.23-1.53,.18-2.64,1.06-3.51,2.27-1.98,2.76-2.77,5.89-2.87,9.24-.06,1.91-.84,2.89-2.22,2.95Zm-.14-20.91c-.9,1.39-1.6,2.57-2.58,3.54-.39,.38-.44,.73-.07,1.19,.75,.93,1.46,1.9,2.17,2.85,.21,.28,.46,.68,.78,.29,.93-1.15,1.79-2.35,2.64-3.57,.18-.25-.06-.54-.27-.74-1.04-.98-1.76-2.22-2.67-3.56Z"/><path class="d" d="M57.62,13.34c0,.47-.29,1.02-.66,1.55-2.97,4.29-5.92,8.6-8.93,12.87-1.42,2.02-2.75,2.08-4.48,.23-2.3-2.48-4.57-5-6.82-7.52-1.1-1.23-1.12-2.61-.13-3.51,.99-.9,2.27-.75,3.47,.5,1.46,1.54,2.93,3.08,4.28,4.71,.98,1.18,1.52,.91,2.28-.23,2.06-3.11,4.22-6.15,6.35-9.22,.33-.47,.66-.95,1.09-1.32,.65-.57,1.44-.7,2.25-.31,.84,.41,1.32,1.08,1.31,2.24Z"/></g></g></g></svg>